<svg width="173" height="113" viewBox="0 0 173 113" fill="none" xmlns="http://www.w3.org/2000/svg">
<g opacity="0.26">
<path d="M24 0.677734H34.7827L38.8215 4.58738V21.9498L35.3024 25.3644H24V0.677734ZM33.552 20.6867V5.37293H29.253V20.6867H33.552Z" fill="#6EB648"></path>
<path d="M46.1718 0.677734V6.75574H40.9194V0.677734H46.1718ZM46.1718 8.25761V25.3644H40.9194V8.25825H46.1718V8.25761Z" fill="#6EB648"></path>
<path d="M58.4107 14.8481V0.677734H63.3687V25.3644H58.1682L53.0367 11.194V25.3644H48.1135V0.677734H53.314L58.4107 14.8481Z" fill="#6EB648"></path>
<path d="M65.8296 0.677734H80.9632V25.3644H65.8296V0.677734ZM71.0997 20.6867H75.7108V5.37293H71.0997V20.6867Z" fill="#6EB648"></path>
<path d="M97.0512 25.3644H83.2698V17.6817H88.5222V20.6867H91.7811V16.7602L83.4426 10.5631V0.677734H96.8948V8.01883H92.1273V5.38976H88.695V8.61673L97.0505 14.797V25.3651L97.0512 25.3644Z" fill="#6EB648"></path>
<path d="M104.592 25.3644H99.3218V4.58738L103.361 0.677734H114.317V25.3644H109.064V17.2552H104.592V25.3644ZM109.064 12.56V5.37229H104.592V12.56H109.064Z" fill="#6EB648"></path>
<path d="M131.115 25.3644H116.293V0.677734H121.546V20.6867H125.845V0.677734H131.115V25.3644Z" fill="#6EB648"></path>
<path d="M143.215 25.3644L140.094 16.4354H138.707V25.3644H133.455V4.16031L137.269 0.677734H147.999V16.3674H145.156L148.485 25.3644H143.215ZM142.747 11.8088V5.37229H138.708V11.8088H142.747Z" fill="#6EB648"></path>
<path d="M24 87.5728H34.7827L38.8215 91.4824V108.845L35.3024 112.259H24V87.5728ZM33.552 107.582V92.268H29.253V107.582H33.552Z" fill="#6EB648"></path>
<path d="M46.1718 87.5728V93.6508H40.9194V87.5728H46.1718ZM46.1718 95.1526V112.259H40.9194V95.1526H46.1718Z" fill="#6EB648"></path>
<path d="M58.4107 101.743V87.5728H63.3687V112.259H58.1682L53.0367 98.0891V112.259H48.1135V87.5728H53.314L58.4107 101.743Z" fill="#6EB648"></path>
<path d="M65.8296 87.5728H80.9632V112.259H65.8296V87.5728ZM71.0997 107.582H75.7108V92.268H71.0997V107.582Z" fill="#6EB648"></path>
<path d="M97.0512 112.259H83.2698V104.577H88.5222V107.582H91.7811V103.655L83.4426 97.458V87.5732H96.8948V94.9143H92.1273V92.2853H88.695V95.5122L97.0505 101.692V112.261L97.0512 112.259Z" fill="#6EB648"></path>
<path d="M104.592 112.259H99.3218V91.4824L103.361 87.5728H114.317V112.259H109.064V104.15H104.592V112.259ZM109.064 99.455V92.2673H104.592V99.455H109.064Z" fill="#6EB648"></path>
<path d="M131.115 112.259H116.293V87.5728H121.546V107.582H125.845V87.5728H131.115V112.259Z" fill="#6EB648"></path>
<path d="M143.215 112.259L140.094 103.33H138.707V112.259H133.455V91.0553L137.269 87.5728H147.999V103.262H145.156L148.485 112.259H143.215ZM142.747 98.7038V92.2673H138.708V98.7038H142.747Z" fill="#6EB648"></path>
<path d="M24 30.7075H47.5634L56.3901 39.2515V77.1949L48.7001 84.657H24V30.7075ZM44.8735 74.4338V40.9676H35.4785V74.4338H44.8735Z" fill="#6EB648"></path>
<path d="M72.4526 30.7075V43.9894H60.9741V30.7075H72.4526ZM72.4526 47.2727V84.6564H60.9741V47.2727H72.4526Z" fill="#6EB648"></path>
<path d="M99.198 61.6741V30.7075H110.033V84.6564H98.6678L87.4541 53.6898V84.6564H76.6951V30.7075H88.0599L99.1974 61.6741H99.198Z" fill="#6EB648"></path>
<path d="M115.412 30.7075H148.484V84.6564H115.412V30.7075ZM126.929 74.4338H137.006V40.9676H126.929V74.4338Z" fill="#6EB648"></path>
</g>
<path d="M139.842 40.0506C139.194 37.3394 138.516 34.8261 138.417 32.0159C138.296 28.5676 138.186 25.8421 136.145 22.9639C134.936 21.2582 133.037 19.1306 133.686 16.9163C134.244 15.0107 133.728 13.1387 132.929 11.4362C132.115 9.70527 130.374 8.97924 128.59 8.46352C123.557 7.00889 118.469 6.80959 113.325 7.86562C112.5 8.03645 111.245 8.37358 109.561 8.8783C109.504 8.89513 109.447 8.89254 109.391 8.87118C108.735 8.61429 108.082 8.35158 107.432 8.08369C104.772 6.98301 102.31 6.88012 99.4803 7.26967C98.7286 7.37384 97.7352 7.43726 97.1773 7.1739C94.3146 5.82086 92.4545 4.85154 89.8625 4.30928C87.1811 3.74697 84.2028 3.8518 81.4609 4.18116C80.6002 4.2847 80.0043 4.32287 79.6738 4.29634C78.2105 4.1831 76.7743 3.14713 75.5364 2.45735C73.0751 1.08878 70.7761 0.23334 67.9443 0.019157C66.9916 -0.0526687 66.0179 0.0909826 65.0559 0.226222C63.0855 0.499936 61.3253 1.24472 59.7753 2.45993C56.8817 4.73183 56.1754 8.33281 56.4849 11.862C56.5006 12.0445 56.4106 12.2017 56.2142 12.3337C55.7188 12.665 55.2155 12.9924 54.703 13.3153C54.653 13.347 54.5939 13.3619 54.5348 13.3587C52.9546 13.2758 51.8494 13.3354 50.3718 12.6436C50.2344 12.5789 50.0708 12.5984 49.9526 12.6941C49.5537 13.0209 49.2712 13.424 49.1056 13.9048C49.0912 13.9482 49.0905 13.9947 49.1037 14.0381L49.879 16.6161C49.9059 16.7047 49.8737 16.7604 49.7817 16.7817L44.7041 17.9814C44.6503 17.9937 44.6089 18.0228 44.5799 18.0694C44.1943 18.7055 45.3316 20.4798 45.6719 21.1087C45.6752 21.1158 45.6779 21.123 45.6792 21.1307C45.6851 21.1689 45.6588 21.2045 45.6207 21.2097C43.3303 21.5377 40.8815 22.2418 39.0503 23.6919C39.0069 23.7262 38.9951 23.7863 39.0227 23.8342L41.3585 27.8642C41.3637 27.8726 41.3677 27.8823 41.3703 27.892C41.3887 27.9574 41.3499 28.0247 41.2836 28.0428C38.5871 28.7617 35.6955 29.8495 33.5423 31.658C33.3485 31.8211 33.3097 32.0062 33.4254 32.2126C34.2289 33.6588 35.1048 35.0513 36.0522 36.3901C36.0562 36.3953 36.0595 36.4011 36.0621 36.4069C36.0884 36.4626 36.0647 36.5286 36.0082 36.5545C34.8886 37.0734 31.7079 38.7448 31.2138 39.8707C31.2112 39.8766 31.2092 39.8824 31.2072 39.8889C31.179 39.9814 31.2315 40.0791 31.3255 40.1069C32.8117 40.5346 33.8748 41.4431 34.5134 42.8324C34.5377 42.8842 34.5272 42.9282 34.4826 42.9638C32.6001 44.4482 30.4069 46.7466 29.6336 49.0457C29.6323 49.0489 29.6316 49.0515 29.631 49.0547C29.5699 49.2514 29.6816 49.4598 29.8806 49.52C31.0219 49.8674 31.5798 50.5488 32.0173 51.6799C32.3597 52.5677 32.9431 54.0508 32.7269 54.991C30.7387 63.6722 33.3176 72.7675 38.9971 79.6026C39.3821 80.0659 39.7974 80.4768 40.2428 80.8347C40.2652 80.8534 40.2934 80.8651 40.3223 80.8683C40.4045 80.8774 40.4787 80.8185 40.4879 80.7376C40.6141 79.6984 41.0089 78.2243 41.7153 77.3961C41.7606 77.343 41.8079 77.3411 41.8578 77.389C43.4879 78.9801 45.1923 80.3461 46.9059 81.7328C47.1542 81.6901 47.423 81.7373 47.6661 81.9224C48.6385 82.6633 49.9611 82.7759 51.1109 83.0807C51.6366 83.2198 52.1438 83.3958 52.6155 83.6294C52.6287 83.6229 52.6425 83.6177 52.6569 83.6152C52.6839 83.6093 52.7259 83.6009 52.7831 83.5899C52.8245 83.5802 52.8659 83.5815 52.9073 83.5938C53.6846 83.817 54.4441 84.1471 55.2339 84.3069C55.5157 84.3645 55.6747 84.5463 55.9145 84.6188C58.8739 85.5124 61.2195 86.8201 63.7596 88.7711C66.6519 90.9918 69.5041 93.2644 72.3149 95.5893C73.2979 96.2468 73.8274 97.2342 74.5285 98.1764C74.5797 98.2456 74.631 98.3142 74.6816 98.3828C74.746 98.3388 74.8347 98.3452 74.8886 98.4035C76.976 100.626 79.0956 102.835 81.183 105.074C84.2139 108.324 87.735 111.086 92.1963 112.1C95.9408 112.952 102.742 113.755 105.988 111.297C108.135 109.672 110.221 107.585 112.248 105.037C114.864 101.747 116.695 96.9935 116.137 92.7616C116.13 92.7027 116.14 92.6471 116.166 92.594C117.396 90.2199 117.548 87.5772 116.986 84.9255C116.753 83.8177 116.601 83.0412 115.373 82.9202C114.332 82.8192 113.856 83.2554 113.137 83.9833C113.095 84.0254 113.043 84.0558 112.986 84.0701C112.332 84.2312 111.689 84.2609 111.058 84.16C110.659 84.0966 110.252 83.9206 109.838 83.632C107.298 81.87 105.421 79.5657 104.208 76.718C104.007 76.2495 103.953 74.9903 104.376 74.4448C107.474 70.4406 110.248 66.2282 112.699 61.8073C112.728 61.7543 112.771 61.7174 112.829 61.6954C114.963 60.9008 116.586 59.4345 117.938 57.635C117.951 57.6182 117.971 57.6084 117.992 57.6072C118.031 57.6052 118.065 57.6356 118.066 57.6744C118.089 58.4885 118.214 59.287 118.442 60.0686C118.46 60.1275 118.458 60.1851 118.438 60.2414C118.226 60.8969 118.239 61.4793 118.477 61.9872C120.556 66.4443 126.895 58.5985 128.184 57.0533C128.207 57.0254 128.243 57.0112 128.278 57.0177C128.331 57.0274 128.366 57.0765 128.357 57.129C128.211 58.0828 128.308 58.9971 128.646 59.8726C129.394 61.8164 131.159 62.0377 132.668 60.6937C133.811 59.6739 134.621 58.3713 135.388 56.9374C136.627 54.6118 137.033 52.3742 137.318 49.9063C137.324 49.8467 137.355 49.7911 137.404 49.7529C140.062 47.6434 140.574 43.1165 139.842 40.0519V40.0506Z" fill="#192D2E"></path>
<path d="M131.198 29.7032L131.139 30.0565C131.262 31.0058 130.687 31.9784 130.195 32.8396C130.183 32.8584 130.161 32.8681 130.139 32.8642C130.11 32.859 130.089 32.8312 130.094 32.8021L130.48 31.1287C130.586 28.6064 130.684 26.077 130.773 23.5392C130.844 21.5216 131.199 19.1746 131.835 16.499C132.022 15.7134 131.778 14.9473 131.105 14.2005C130.644 14.6134 131.434 15.2397 130.769 15.8415C130.725 15.881 130.675 15.8907 130.62 15.8706C129.343 15.3808 127.814 15.2507 126.466 14.9609C125.912 14.8405 125.174 14.6231 124.253 14.3067C121.809 13.4674 119.217 12.9465 116.614 13.0455C112.524 13.2002 108.683 14.1734 106.127 17.5653C105.452 18.4622 105.189 19.6172 104.861 20.7037C104.851 20.7347 104.827 20.7593 104.796 20.7716C104.74 20.7936 104.676 20.7664 104.654 20.7108C104.229 19.601 104.597 18.5295 104.539 17.3816C104.535 17.3201 104.515 17.2664 104.476 17.2192C104.362 17.0813 104.243 16.9461 104.118 16.8141C104.092 16.7863 104.097 16.7694 104.134 16.7636C104.17 16.7565 104.172 16.7429 104.141 16.7241L103.316 16.1871C102.369 19.4496 103.955 22.984 106.504 25.0773C106.505 25.0786 106.505 25.0805 106.505 25.0818C106.505 25.0857 106.501 25.0883 106.496 25.0876C105.796 24.733 105.211 24.3474 104.74 23.9294C102.245 22.2469 100.789 20.0436 101.509 16.9791C101.793 16.0628 102.299 15.2423 103.026 14.5182L103.67 13.0539C102.825 13.1005 102.029 13.2157 101.283 13.3982C97.1781 14.4031 93.4737 15.2844 89.0143 15.0391C85.3178 14.8373 81.8565 13.6576 78.6594 11.6666C75.934 9.97123 72.4057 7.17715 69.0048 5.59181C66.4608 4.40766 63.83 4.3876 61.1118 5.53228L60.2025 6.32107C59.3739 7.84882 58.9166 9.96023 58.5618 11.6478C58.2675 13.0442 58.2182 14.7641 57.9836 16.3301C57.707 16.8846 57.2773 17.3466 56.6958 17.7155C53.751 19.5855 50.998 21.6283 48.6622 24.2154C46.6878 26.4012 45.0018 28.7811 43.6043 31.3565C43.6201 31.394 43.6418 31.4122 43.668 31.4122C44.1582 30.6318 44.7896 29.9336 45.5629 29.3189C47.3862 27.8584 49.5959 26.9493 52.1918 26.5914C52.3456 26.5707 52.3955 26.4885 52.3416 26.3449C52.2805 26.1792 52.272 25.9592 52.316 25.6855C52.339 25.4539 52.2667 25.184 52.0985 24.8767C52.5775 24.5848 52.9271 24.1578 53.4008 23.9235C55.1071 23.0804 56.9015 22.7853 58.6124 22.0211C57.7274 22.1337 57.0598 21.7338 56.6111 20.8214C56.3345 20.2585 56.4402 19.7266 56.9291 19.227L59.8207 16.6005L60.0257 16.4964C60.0487 16.3378 60.1243 16.2188 60.2524 16.1398C60.3096 16.1036 60.3431 16.1191 60.3529 16.1864C60.5651 17.7142 60.5211 19.2335 60.2215 20.7438C60.1315 21.1967 60.0067 21.5753 59.8483 21.8807C59.5047 22.3634 59.1663 22.6682 58.8332 22.7937C57.8299 23.171 56.8266 23.5553 55.8239 23.9468C54.4764 24.3927 53.5243 25.2099 52.9665 26.3986C52.9612 26.4096 52.9586 26.4212 52.9592 26.4329C52.9606 26.475 52.9954 26.508 53.0381 26.5067C55.4553 26.462 57.7438 26.9654 59.9048 28.0163C59.9436 28.0357 59.9442 28.0551 59.9068 28.0758C59.8923 28.0829 59.872 28.0875 59.8463 28.0881C60.7478 28.4162 61.6374 28.6504 62.4673 29.1564C63.6454 29.8721 64.8464 30.5289 66.0705 31.1274C66.0909 31.1352 66.1007 31.1572 66.0935 31.1773C66.0856 31.1973 66.0633 31.207 66.0429 31.1999C62.966 30.3962 60.1368 29.6366 56.9646 29.6761C56.9389 29.6761 56.9159 29.6929 56.9067 29.7168C56.8949 29.7485 56.912 29.7835 56.9442 29.7951L62.1171 31.6723C62.1394 31.6813 62.1539 31.7046 62.1519 31.7286C62.1493 31.7577 62.123 31.7791 62.0934 31.7752C61.2485 31.6872 60.37 31.6529 59.5415 31.5299C56.5546 31.0867 53.5749 30.4221 50.5275 30.7483C50.5045 30.747 50.4848 30.7651 50.4835 30.7877C50.4822 30.8104 50.5006 30.8298 50.5236 30.8311C51.3357 30.9896 52.6439 31.132 53.2543 31.7247C53.3095 31.7784 53.2983 31.8114 53.2214 31.8218C52.0801 31.9932 50.9375 32.0689 49.7936 32.0489C49.0104 32.0359 48.4658 32.0838 48.1583 32.1932C47.5196 32.4222 46.3875 33.3443 46.5617 34.1584C46.9092 35.7851 54.1787 35.5205 55.4461 35.4266C55.4803 35.4208 55.5125 35.4428 55.5184 35.4765C55.5243 35.5101 55.502 35.5418 55.4678 35.5476C52.8995 36.2594 45.1477 37.9865 43.3586 35.4467C43.3244 35.3975 43.3054 35.3425 43.3021 35.283L43.2804 34.8397C43.2732 34.6993 43.2403 34.6935 43.1818 34.8216C43.1174 34.9659 43.0084 35.0371 42.8546 35.0358C42.3592 34.7834 42.5031 33.9746 42.6371 33.5423C42.6404 33.5275 42.6339 33.5119 42.6207 33.5029C42.603 33.4912 42.5793 33.4958 42.5675 33.5132C41.5517 35.2209 41.5517 36.8366 42.5675 38.3611C44.2318 40.8614 51.1169 40.4615 53.7293 40.1878C57.1025 39.8365 60.6492 39.0762 64.0553 38.5468C64.9483 38.4841 65.8031 38.4304 66.6198 38.3844C70.2433 38.1825 73.9162 38.8167 76.8703 41.0381C79.1219 42.7276 80.7337 44.0949 83.2429 45.6123C89.2318 49.2314 98.3535 51.7207 104.543 47.2261C108.281 44.5097 112.829 43.101 117.605 42.3064C123.417 41.3409 129.715 41.1099 134.842 43.9726C135.142 43.484 135.353 42.9127 135.476 42.2591C136.442 37.1356 134.589 33.3236 131.19 29.7032H131.198ZM49.2555 26.0712C49.2588 26.0764 49.2614 26.0822 49.266 26.0861C49.2608 26.0822 49.2588 26.077 49.2555 26.0712ZM49.2949 26.0977C49.2903 26.0977 49.2871 26.0938 49.2825 26.0925C49.2897 26.0945 49.2969 26.0984 49.3048 26.0964C49.3015 26.0971 49.2982 26.0977 49.2949 26.0977ZM58.9501 16.8277C58.8792 16.8684 58.8089 16.9137 58.7366 16.9668C58.6906 17.0004 58.6466 17.0289 58.6045 17.0516C58.5204 17.0981 58.4442 17.1234 58.3752 17.1286C58.3062 17.1337 58.2458 17.1182 58.1926 17.082C58.2458 17.1182 58.3069 17.1337 58.3752 17.1286C58.4442 17.1234 58.5204 17.0975 58.6045 17.0516C58.6466 17.0283 58.6906 16.9998 58.7366 16.9668C58.8089 16.9144 58.8798 16.8684 58.9501 16.8277ZM55.9021 24.414C55.9008 24.4082 55.9021 24.403 55.9015 24.3972C55.9015 24.4037 55.9015 24.4101 55.9034 24.416C55.9034 24.4153 55.9028 24.4147 55.9021 24.414ZM69.1402 32.0243C69.1402 32.0204 69.1402 32.0165 69.1402 32.0126C69.1402 32.0217 69.1402 32.0301 69.1435 32.0392C69.1415 32.034 69.1408 32.0295 69.1395 32.0243H69.1402ZM69.4904 38.1515C69.491 38.1476 69.4917 38.1431 69.4917 38.1392C69.4917 38.1405 69.4924 38.1411 69.4924 38.1424C69.4924 38.1457 69.4904 38.1482 69.4897 38.1515H69.4904ZM69.6297 32.5717C69.6297 32.5717 69.631 32.5737 69.6316 32.575C69.633 32.5788 69.6316 32.5827 69.6323 32.5866C69.6316 32.5814 69.631 32.5763 69.6297 32.5717ZM69.8577 31.3656C69.8577 31.3656 69.859 31.3695 69.859 31.3714C69.861 31.3817 69.8596 31.3915 69.861 31.4018C69.8596 31.3902 69.8596 31.3779 69.8577 31.3662V31.3656ZM100.965 14.1992L100.591 14.7273C99.5158 16.4692 99.642 18.0869 99.6387 20.0346C99.638 20.0521 99.6295 20.0682 99.6157 20.0792C99.5894 20.0993 99.5513 20.0948 99.5309 20.0689C99.1466 19.5454 98.9553 18.952 98.9567 18.2888C98.9567 18.094 99.0644 17.8979 99.05 17.676C99.046 17.6268 99.0303 17.6216 99.0027 17.6618C98.4613 18.4052 98.163 19.2329 98.1084 20.1439C98.1038 20.241 98.0631 20.2578 97.9875 20.1944C97.4901 19.7667 97.2234 19.2225 97.1879 18.5605C97.1879 18.547 97.1833 18.5334 97.1761 18.5217C97.1531 18.4842 97.1032 18.4725 97.0657 18.4958C96.2536 18.9714 95.3994 19.3733 94.5032 19.7007C93.2437 20.1621 92.0604 20.5807 90.9526 20.956C88.7285 22.6818 85.5327 23.4188 83.0964 24.0957C81.9275 24.4218 80.8795 25.7567 80.2172 26.2899C77.1015 28.7973 73.5174 30.1238 69.4654 30.2694C66.2019 30.4745 61.9568 29.4315 60.6998 26.1242C60.6828 26.0809 60.6926 26.0731 60.7294 26.1009C61.6979 26.825 62.7058 27.4805 63.7531 28.0661C63.7551 28.0661 63.757 28.0661 63.7584 28.0648C63.7597 28.0635 63.7584 28.0629 63.7571 28.0622C62.8293 26.9887 62.3037 25.6959 62.1802 24.1837C61.7268 24.9944 61.0389 25.45 60.1644 25.151C59.6939 24.9906 59.3667 24.7977 58.8398 24.832C57.9666 24.8864 57.1098 24.801 56.2701 24.5764C57.7372 24.6593 59.1275 24.4541 60.4403 23.9604C61.4587 23.732 62.0711 23.1891 62.2787 22.3304L62.6467 21.6568C63.0744 20.5542 63.7111 19.3008 63.5829 18.0739C63.579 18.0448 63.5567 18.0215 63.5271 18.0157C63.4896 18.0086 63.4528 18.0332 63.4456 18.0701C63.2551 19.326 62.8359 20.5095 62.1874 21.6186C62.9193 19.3467 63.2886 17.2554 62.1177 15.1349C62.0882 15.0831 62.0468 15.0463 61.9936 15.023C60.8542 14.5221 59.5848 13.8699 58.935 12.8216L58.8582 12.7459C58.8056 12.6954 58.8109 12.6527 58.8746 12.6178L59.3667 12.3421C60.2925 10.6073 61.121 7.4761 63.217 6.85879C65.6132 6.15283 67.5593 6.86397 69.4766 8.24612C72.1619 10.1809 74.6679 12.0852 77.7205 13.7262C81.4833 15.7529 85.5327 16.7041 89.7896 16.8749C92.8738 17.0011 95.95 16.5501 99.0197 15.5219C99.3404 15.2721 99.7392 14.9298 100.216 14.495C100.373 14.352 100.606 14.2322 100.919 14.1345C100.999 14.1093 101.015 14.1307 100.966 14.1973L100.965 14.1992Z" fill="#6EB648"></path>
<path d="M103.674 13.0544C102.829 13.1009 102.033 13.2161 101.287 13.3986C97.1825 14.4035 93.4781 15.2848 89.0187 15.0396C85.3222 14.8377 81.8609 13.6581 78.6638 11.667C75.9384 9.97168 72.4101 7.17759 69.0092 5.59225C66.4652 4.4081 63.8344 4.38804 61.1162 5.53272C62.3528 4.34016 63.9908 3.7332 66.0296 3.7112C68.6636 3.68402 70.4304 4.43916 72.6893 5.30883C72.7787 5.34248 72.8799 5.31207 72.9344 5.23507C73.0126 5.127 72.9824 5.02153 72.845 4.918C71.4403 3.85485 69.8029 3.41548 68.0802 3.16506C67.0742 3.02076 66.0368 3.14694 64.9941 3.21359C64.9454 3.21748 64.9192 3.19483 64.9152 3.14694C64.9093 3.08353 64.8653 3.03565 64.7838 3.00459C71.8187 1.37266 77.213 7.23648 82.6987 10.3418C86.2861 12.3723 90.1324 13.0019 94.2369 12.23C95.2908 12.032 96.3454 11.8359 97.4013 11.6424C99.8461 11.1934 102.288 11.2031 104.725 11.6716C104.78 11.6826 104.786 11.7052 104.744 11.7401C104.272 12.1277 103.915 12.5658 103.673 13.0537L103.674 13.0544Z" fill="#C3ED75"></path>
<path d="M64.7832 3.00586C64.8647 3.03692 64.9087 3.0848 64.9147 3.14822C64.9186 3.1961 64.9442 3.21875 64.9935 3.21487C66.0362 3.14822 67.073 3.02204 68.0796 3.16633C69.803 3.41675 71.4397 3.85612 72.8445 4.91927C72.9824 5.0228 73.012 5.12828 72.9338 5.23634C72.8786 5.31334 72.7781 5.34375 72.6887 5.3101C70.4298 4.43978 68.6624 3.68529 66.029 3.71247C63.9902 3.73382 62.3522 4.34143 61.1156 5.53399L60.2063 6.32278C61.0223 4.6242 63.0197 3.45105 64.7832 3.00651V3.00586Z" fill="#FAFAF9"></path>
<path d="M97.4841 9.76263C97.5452 9.78657 97.5899 9.81439 97.6195 9.84545C97.6595 9.88751 97.651 9.91598 97.5938 9.93022C96.5682 10.1787 95.737 10.2557 95.1004 10.1606C94.4269 10.0596 93.308 9.70568 91.7422 9.09743C89.0293 8.04528 86.2218 6.07816 83.0411 6.28523C82.9313 6.29235 82.8847 6.22699 82.9004 6.08916C85.3906 5.53526 87.6962 5.78892 89.8165 6.84948C92.7252 8.30346 94.8415 9.72121 97.4841 9.76263Z" fill="#C3ED75"></path>
<path d="M82.8997 6.09033C82.8839 6.22816 82.9306 6.29416 83.0403 6.2864C86.221 6.07933 89.0292 8.04645 91.7415 9.0986C93.3072 9.7062 94.4268 10.0608 95.0996 10.1617C95.7363 10.2569 96.5674 10.1799 97.5931 9.93139C97.6502 9.91715 97.6588 9.88868 97.6187 9.84662C97.5891 9.81556 97.5444 9.78774 97.4833 9.76379C100.048 9.42537 103.445 8.54082 105.649 10.2666C105.72 10.3209 105.711 10.3442 105.621 10.3371C101.683 10.02 98.8263 10.2653 94.9189 11.0431C93.6423 11.2974 92.091 11.4074 90.2657 11.3724C86.8577 11.3097 83.56 9.62338 80.5159 7.40714C80.5429 7.37737 80.5606 7.34372 80.5691 7.30619C80.5803 7.26154 80.5672 7.22595 80.531 7.19813L80.3904 7.09524C80.3589 7.0726 80.355 7.04542 80.3793 7.01436C80.4009 6.98783 80.4325 6.9833 80.4726 7.00012C80.8274 7.15478 81.3247 7.61097 81.7715 7.6595C81.9312 7.67632 82.0652 7.7132 82.1736 7.7695C84.221 8.83847 86.3708 9.68032 88.6231 10.295C88.7427 10.3274 88.815 10.284 88.8406 10.1656C88.8479 10.1307 88.7946 10.0472 88.6816 9.91521C87.3209 8.33893 84.0449 7.14248 81.7965 6.39511C81.7255 6.37246 81.7262 6.3524 81.7985 6.33557L82.8997 6.09033Z" fill="#84CE51"></path>
<path d="M99.0183 15.5237C98.5295 16.2277 98.0564 16.8139 97.5991 17.2837C95.9802 18.9448 92.7062 19.5479 90.4308 19.8649C84.9997 20.6233 79.5857 19.4359 74.813 16.8256C72.0987 15.3412 69.6946 12.7652 66.6769 11.9039C64.3266 11.2323 61.8548 11.6211 59.4921 12.3996C59.4566 12.4119 59.4258 12.4035 59.3988 12.3763L59.366 12.3439C60.2917 10.6091 61.1203 7.47791 63.2162 6.86059C65.6124 6.15463 67.5586 6.86577 69.4758 8.24793C72.1612 10.1827 74.6671 12.087 77.7197 13.728C81.4826 15.7547 85.5319 16.7059 89.7889 16.8767C92.873 17.0029 95.9493 16.5519 99.019 15.5237H99.0183Z" fill="#466F2B"></path>
<path d="M88.6818 9.91461C88.7955 10.0466 88.848 10.1301 88.8408 10.165C88.8152 10.2841 88.7429 10.3274 88.6233 10.2944C86.371 9.67972 84.2212 8.83787 82.1738 7.7689C82.0654 7.7126 81.9314 7.67572 81.7717 7.65889C81.3256 7.61036 80.8275 7.15417 80.4727 6.99952C80.4327 6.9827 80.4011 6.98723 80.3794 7.01376C80.3551 7.04482 80.3584 7.072 80.3906 7.09464L80.5312 7.19753C80.568 7.22535 80.5805 7.26094 80.5693 7.30559C80.5608 7.34312 80.543 7.37677 80.5161 7.40653L79.2776 6.66239C79.2033 6.61775 79.2093 6.59769 79.296 6.60092C79.9813 6.62875 80.7152 6.7711 81.4984 7.02799C83.9511 7.83296 86.5872 8.6871 88.6818 9.91396V9.91461Z" fill="#C3ED75"></path>
<path d="M127.674 11.5412C127.647 11.7871 127.54 11.8971 127.35 11.8705C126.312 11.723 125.253 11.701 124.429 11.5768C119.785 10.8721 115.168 10.6974 110.776 12.5513C108.984 13.3077 107.884 13.8034 106.583 15.0082C106.499 15.0865 106.281 15.148 105.928 15.1939C105.856 15.2036 105.843 15.1803 105.888 15.1234L106.507 14.3379C106.595 14.2266 106.574 14.0654 106.461 13.9787C106.388 13.9231 106.29 13.9095 106.205 13.9431L105.067 14.3883C105.001 14.4136 104.951 14.3961 104.915 14.3359L104.88 14.2803C109.455 11.8142 114.061 10.1894 119.307 10.2826C122.203 10.335 124.956 10.621 127.674 11.5399L127.674 11.5412Z" fill="#FAFAF9"></path>
<path d="M127.675 11.5409C129.056 12.1569 130.2 13.0434 131.106 14.1997C130.645 14.6126 131.435 15.239 130.77 15.8407C130.726 15.8802 130.677 15.8899 130.621 15.8699C129.345 15.38 127.815 15.25 126.468 14.9601C125.913 14.8397 125.175 14.6223 124.254 14.3059C121.81 13.4666 119.218 12.9457 116.615 13.0447C112.525 13.1994 108.684 14.1726 106.128 17.5646C105.453 18.4614 105.19 19.6164 104.862 20.7029C104.844 20.7598 104.782 20.7915 104.724 20.7734C104.693 20.7637 104.668 20.7404 104.655 20.71C104.231 19.6003 104.599 18.5287 104.54 17.3808C104.536 17.3193 104.516 17.2656 104.478 17.2184C104.363 17.0805 104.244 16.9453 104.119 16.8133C104.093 16.7855 104.099 16.7686 104.135 16.7628C104.171 16.7557 104.174 16.7421 104.143 16.7234L103.317 16.1863C103.603 15.3386 104.124 14.7032 104.88 14.2806L104.915 14.3363C104.95 14.3965 105.001 14.4139 105.066 14.3887L106.204 13.9435C106.338 13.8911 106.489 13.9545 106.542 14.0852C106.576 14.17 106.563 14.2657 106.506 14.3376L105.888 15.1231C105.842 15.1794 105.856 15.2027 105.928 15.1937C106.28 15.1477 106.499 15.0862 106.583 15.0079C107.883 13.8031 108.983 13.3074 110.775 12.551C115.167 10.6971 119.784 10.8718 124.429 11.5765C125.252 11.7007 126.311 11.7227 127.35 11.8703C127.539 11.8968 127.647 11.7868 127.674 11.5409H127.675Z" fill="#C3ED75"></path>
<path d="M99.0184 15.5239C99.339 15.2741 99.7378 14.9318 100.215 14.497C100.371 14.3539 100.605 14.2342 100.917 14.1365C100.997 14.1113 101.014 14.1326 100.965 14.1993L100.591 14.7273C99.5157 16.4692 99.6419 18.0869 99.6386 20.0346C99.6373 20.0676 99.609 20.0929 99.5762 20.0916C99.5584 20.0909 99.542 20.0825 99.5308 20.0689C99.1465 19.5455 98.9553 18.9521 98.9566 18.2888C98.9566 18.0941 99.0643 17.898 99.0499 17.676C99.0459 17.6269 99.0302 17.6217 99.0026 17.6618C98.4612 18.4053 98.1629 19.2329 98.1084 20.144C98.1038 20.2411 98.063 20.2579 97.9874 20.1945C97.4901 19.7668 97.2233 19.2226 97.1878 18.5606C97.1865 18.5166 97.1491 18.4823 97.1044 18.4842C97.0906 18.4842 97.0768 18.4888 97.065 18.4959C96.2529 18.9715 95.3987 19.3733 94.5025 19.7008C93.243 20.1621 92.0596 20.5808 90.9519 20.9561C87.9019 21.631 84.9557 21.7552 82.1134 21.3288C81.6048 21.2518 81.1613 21.1994 80.7835 21.1722C80.7211 21.1677 80.6652 21.1839 80.6153 21.2207C79.0279 22.4385 77.8879 23.7605 75.9234 24.7318C75.8945 24.748 75.884 24.7842 75.901 24.8127C75.9142 24.8353 75.9398 24.847 75.9654 24.8418C77.0614 24.561 78.0417 24.0925 78.7822 23.4292C78.838 23.3787 78.8899 23.3826 78.9379 23.4402L79.0108 23.5282C79.041 23.5645 79.0397 23.5994 79.0056 23.6324C78.8045 23.8207 78.5818 23.9799 78.338 24.1099C78.227 24.1675 78.181 24.2529 78.1987 24.3655C78.2112 24.4387 78.2473 24.4529 78.3084 24.4089C79.2835 23.6971 80.4635 22.6437 81.0155 22.5265C81.1324 22.5026 81.1455 22.5285 81.0536 22.6042C78.568 24.6671 78.112 27.9381 74.5889 28.8284C72.0574 29.4671 69.7084 29.2445 67.5428 28.16C63.9521 26.3624 63.0888 23.0403 65.209 19.6445C65.2333 19.605 65.2623 19.581 65.2951 19.5726C65.3418 19.5597 65.3812 19.57 65.414 19.605C65.4528 19.6445 65.4594 19.6891 65.4324 19.7383C64.8102 20.8357 64.6584 21.9856 64.9771 23.1879C65.0487 23.7029 65.1821 24.1488 65.3759 24.5247C66.9692 27.6178 70.2617 28.7818 73.6145 27.7976C75.0062 27.4676 76.1901 26.7908 77.1665 25.7671C77.2164 25.7141 77.2046 25.6933 77.1317 25.7043C76.1816 25.8571 75.472 25.8771 75.0022 25.7658C73.5502 25.4216 72.035 25.177 70.6414 24.6541C70.2755 24.5163 69.9088 24.4393 69.5402 24.4238C67.9732 23.2662 66.8247 21.7979 66.0941 20.0191C65.7005 18.3296 65.6834 16.6459 66.0448 14.97C66.05 14.9467 66.0737 14.9324 66.0974 14.9376C66.1144 14.9415 66.1276 14.9551 66.1309 14.9719L66.7091 18.0688C66.7163 18.1102 66.7564 18.1374 66.7984 18.1303C66.8313 18.1245 66.8569 18.0986 66.8608 18.0656C67.0402 16.675 67.6821 15.5536 68.7873 14.7021C68.8412 14.6613 68.8398 14.6218 68.7833 14.583C67.7551 13.8732 66.8148 13.1976 65.5697 12.9472C63.5487 12.5434 61.4192 12.5997 59.3338 12.6845C59.1728 12.6897 59.0834 12.7654 58.933 12.823L58.8561 12.7473C58.8035 12.6968 58.8095 12.6541 58.8725 12.6191L59.3647 12.3435L59.3975 12.3758C59.4245 12.4037 59.4553 12.4114 59.4908 12.3991C61.8542 11.6207 64.3253 11.2318 66.6755 11.9035C69.694 12.7647 72.0974 15.3407 74.8117 16.8251C79.5838 19.4355 84.9984 20.6228 90.4295 19.8645C92.7049 19.5474 95.9795 18.9437 97.5978 17.2833C98.0551 16.8135 98.5282 16.2272 99.017 15.5232L99.0184 15.5239Z" fill="#192D2E"></path>
<path d="M77.1854 22.0649L74.9778 20.2744" stroke="#C0A22E" stroke-width="2"></path>
<path d="M57.0518 13.3731C57.1491 13.2605 57.1997 13.2773 57.2016 13.4255C57.222 14.7061 57.2056 16.3762 55.8041 16.9637C55.747 16.9877 55.7187 16.9689 55.72 16.9081C55.743 15.568 56.1872 14.3897 57.0518 13.3738V13.3731Z" fill="#466F2B"></path>
<path d="M103.03 14.5187C102.451 16.2807 102.363 17.9586 102.767 19.5517C103.058 20.7009 103.489 21.6126 104.181 22.6661C104.437 23.0537 104.625 23.4749 104.744 23.9292C102.249 22.2468 100.793 20.0435 101.513 16.9789C101.797 16.0626 102.303 15.2421 103.03 14.5181L103.03 14.5187Z" fill="#466F2B"></path>
<path d="M77.1853 22.0651L74.9777 20.2747C74.7891 19.2769 73.3587 18.0532 72.6051 17.4948C72.5525 17.4573 72.4796 17.4683 72.4428 17.5194C72.4395 17.5239 72.4362 17.5291 72.4336 17.5343L72.3383 17.7181C72.3055 17.7815 72.2568 17.797 72.1918 17.7647L69.3403 16.3146C69.2502 16.2686 69.243 16.213 69.3186 16.147L70.0045 15.5471C70.0604 15.4973 70.1438 15.4915 70.2075 15.5329C71.0453 16.0751 71.9053 16.7707 72.6255 17.2586C74.4914 18.5198 75.9599 19.5195 77.912 20.3174C77.9678 20.34 77.9836 20.3788 77.958 20.4326L77.186 22.0645L77.1853 22.0651Z" fill="#854917"></path>
<path d="M123.708 29.2021C123.603 28.7142 123.529 28.2205 123.489 27.7197C123.151 23.436 121.338 17.2441 116.399 15.8497C117.004 15.7319 117.654 15.8704 118.349 16.2638C122.047 18.3623 123.337 22.0752 123.751 26.1266C123.859 27.1981 123.845 28.2231 123.708 29.2015V29.2021Z" fill="#466F2B"></path>
<path d="M116.4 15.85C121.339 17.2444 123.151 23.4357 123.49 27.72C123.53 28.2208 123.603 28.7152 123.709 29.2024L123.691 30.3335C123.691 30.3562 123.673 30.3756 123.649 30.3756C123.637 30.3756 123.626 30.371 123.617 30.362C123.605 30.3497 123.593 30.3387 123.58 30.3277C123.563 30.3122 123.553 30.2927 123.55 30.2701C123.356 29.0309 122.968 27.6559 122.013 26.7662C119.331 24.262 116.388 23.3994 112.543 22.1273C111.594 21.8141 110.853 21.1761 110.319 20.2139C110.285 20.1511 110.238 20.1407 110.178 20.1815C109.384 20.7238 109.298 21.5598 109.132 22.4223C109.124 22.4586 109.088 22.4812 109.051 22.4735C109.03 22.4689 109.012 22.4547 109.004 22.4353C107.968 19.8664 109.94 17.6611 112.159 16.629C113.554 15.982 114.967 15.7218 116.399 15.8493L116.4 15.85Z" fill="#192D2E"></path>
<path d="M60.0314 16.4971C59.9802 17.4373 59.852 18.3167 59.737 19.3112C59.6115 20.3944 59.2384 21.2984 58.6174 22.0225C57.7324 22.1351 57.0649 21.7352 56.6161 20.8228C56.3395 20.2598 56.4453 19.7279 56.9341 19.2284L59.8257 16.6019L60.0307 16.4977L60.0314 16.4971Z" fill="#466F2B"></path>
<path d="M74.9778 20.2748L77.1854 22.0652C76.3832 23.1329 75.3444 23.6927 74.0704 23.7444C70.0079 23.9101 67.0079 20.3848 69.1899 16.6052C69.2195 16.5541 69.2839 16.5327 69.3397 16.5567C70.115 16.8834 70.8614 17.2788 71.5789 17.7441C71.6814 17.8114 71.8345 17.867 72.0382 17.9117C72.1098 17.9285 72.1203 17.9628 72.0691 18.0145C69.958 20.1907 73.5651 22.8838 74.9778 20.2754V20.2748Z" fill="#FBFA45"></path>
<path d="M131.853 20.7715C131.461 20.1988 131.734 19.8656 131.838 19.2994C131.846 19.2606 131.885 19.2353 131.924 19.2431C131.95 19.2483 131.97 19.2664 131.979 19.2903C132.144 19.8209 132.342 20.349 132.575 20.8737C132.705 21.1656 132.687 21.3675 132.707 21.6664C132.711 21.7538 132.683 21.7667 132.621 21.7039C132.334 21.4108 132.078 21.0996 131.853 20.7709V20.7715Z" fill="#466F2B"></path>
<path d="M73.2747 20.2116C73.3561 20.2821 73.3647 20.4044 73.2931 20.4853L73.2674 20.5144C73.0388 20.7726 72.6479 20.8056 72.3929 20.5882L72.3653 20.5649C72.111 20.3468 72.09 19.9612 72.318 19.7017L72.3436 19.6726C72.4153 19.5917 72.5394 19.5826 72.6216 19.6525L73.2747 20.2109V20.2116Z" fill="#FAFAF9"></path>
<path d="M121.454 26.0228C118.737 23.8862 116.099 22.9531 113.124 21.7644C112.465 21.503 111.953 21.1969 111.633 20.6424C111.569 20.533 111.608 20.3933 111.719 20.3305C111.766 20.304 111.822 20.2943 111.876 20.304C116.105 21.0695 120.08 23.0424 122.328 26.7353C122.341 26.7579 122.331 26.7864 122.308 26.7987C122.293 26.8065 122.275 26.8058 122.26 26.7968C121.955 26.5826 121.699 26.217 121.454 26.0241V26.0228Z" fill="#466F2B"></path>
<path d="M80.2932 21.0217C80.4161 21.0566 80.4181 21.0967 80.2985 21.1427C79.4148 21.4778 78.1618 22.9169 77.441 23.5983C77.397 23.6391 77.351 23.6423 77.3017 23.6074L77.2577 23.575C77.2058 23.5375 77.1953 23.4644 77.2341 23.4126C77.2387 23.4061 77.2446 23.4003 77.2505 23.3951C78.0639 22.6808 78.6368 21.8033 78.97 20.7635C78.9877 20.7059 79.0488 20.6735 79.1073 20.6897L80.2926 21.023L80.2932 21.0217Z" fill="#466F2B"></path>
<path d="M62.6451 21.6582L62.1786 24.1857C61.7253 24.9965 61.0374 25.452 60.1628 25.1531C59.693 24.9926 59.3652 24.7998 58.8382 24.8341C57.965 24.8884 57.1083 24.803 56.2686 24.5785C57.7357 24.6613 59.126 24.4562 60.4388 23.9624C61.4572 23.734 62.0696 23.1911 62.2772 22.3318L62.6451 21.6582Z" fill="#27432D"></path>
<path d="M82.1132 21.3298C81.6047 21.2528 81.1612 21.2003 80.7834 21.1732C80.721 21.1686 80.6651 21.1848 80.6152 21.2217C79.0271 22.4395 77.8878 23.7615 75.9233 24.7327C75.9003 24.7457 75.8884 24.7709 75.8937 24.7962C75.9003 24.8285 75.9325 24.8492 75.9653 24.8421C77.0613 24.5613 78.0416 24.0928 78.782 23.4295C78.8379 23.3791 78.8898 23.3829 78.9378 23.4405L79.0107 23.5285C79.0409 23.5648 79.0396 23.5997 79.0054 23.6327C78.8044 23.821 78.5816 23.9802 78.3379 24.1103C78.2268 24.1678 78.1809 24.2533 78.1986 24.3659C78.2111 24.439 78.2472 24.4532 78.3083 24.4092C79.2834 23.6974 80.4634 22.644 81.0153 22.5269C81.1323 22.5029 81.1454 22.5288 81.0534 22.6045C78.5679 24.6674 78.1119 27.9384 74.5888 28.8288C72.0572 29.4674 69.7083 29.2448 67.5427 28.1603C63.952 26.3627 63.0886 23.0406 65.2089 19.6448C65.2332 19.6053 65.2621 19.5814 65.295 19.5729C65.3416 19.56 65.3811 19.5704 65.4139 19.6053C65.4527 19.6448 65.4592 19.6894 65.4323 19.7386C64.8101 20.836 64.6583 21.9859 64.977 23.1882C65.0486 23.7032 65.182 24.1491 65.3758 24.525C66.9691 27.6181 70.2615 28.7822 73.6144 27.798C75.006 27.4679 76.19 26.7911 77.1664 25.7674C77.2163 25.7144 77.2045 25.6937 77.1316 25.7047C76.1815 25.8574 75.4719 25.8774 75.0021 25.7661C73.55 25.4219 72.0349 25.1773 70.6413 24.6545C70.2753 24.5166 69.9087 24.4396 69.5401 24.4241C67.9731 23.2665 66.8246 21.7983 66.0939 20.0194C65.7004 18.3299 65.6839 16.6462 66.0447 14.9703C66.0486 14.9535 66.0624 14.9405 66.0795 14.9373C66.1031 14.9328 66.1261 14.9483 66.1307 14.9722L66.7089 18.0691C66.7148 18.1015 66.7411 18.1267 66.7746 18.1306C66.8167 18.1358 66.8555 18.1067 66.8607 18.0653C67.0401 16.6747 67.682 15.5533 68.7872 14.7017C68.841 14.661 68.8397 14.6215 68.7832 14.5827C67.7549 13.8728 66.8147 13.1973 65.5696 12.9469C63.5486 12.5431 61.4191 12.5994 59.3337 12.6842C59.1727 12.6893 59.0833 12.765 58.9329 12.8226C59.582 13.8709 60.8514 14.5232 61.9914 15.024C62.0453 15.0466 62.0867 15.0842 62.1156 15.1359C63.2864 17.2564 62.9165 19.3478 62.1852 21.6197C62.8337 20.5099 63.2536 19.3271 63.4434 18.0711C63.4487 18.042 63.473 18.02 63.5026 18.0161C63.5407 18.0109 63.5755 18.0374 63.5808 18.075C63.7089 19.3018 63.0722 20.5559 62.6445 21.6578L62.178 24.1853C62.3009 25.6975 62.8265 26.9904 63.7549 28.0639C63.7569 28.0639 63.7575 28.0652 63.7562 28.0665C63.7549 28.0678 63.7529 28.0678 63.7509 28.0678C62.7036 27.4815 61.6957 26.8267 60.7272 26.1026C60.6904 26.0748 60.6806 26.0826 60.6977 26.1259C61.9546 29.4331 66.1997 30.4762 69.4632 30.2711C73.5152 30.1255 77.0994 28.799 80.2151 26.2916C80.8773 25.7584 81.9253 24.4234 83.0942 24.0973C85.5305 23.4198 88.7263 22.6835 90.9504 20.9577C87.9004 21.6326 84.9543 21.7568 82.1119 21.3304L82.1132 21.3298Z" fill="#466F2B"></path>
<path d="M111.74 24.5472C113.694 25.1509 115.196 27.8169 115.669 29.663C115.755 29.9982 115.702 30.0208 115.51 29.7316C114.332 27.9592 113.026 26.2839 111.589 24.707C111.556 24.6721 111.556 24.6183 111.589 24.5828C111.608 24.5621 111.631 24.5485 111.656 24.5413C111.679 24.5342 111.708 24.5362 111.74 24.5465V24.5472Z" fill="#C3ED75"></path>
<path d="M98.567 25.9757C95.161 29.4402 92.4868 33.3997 91.4881 38.0871L91.358 37.783C91.2371 36.131 91.5446 34.7676 92.2305 33.1098C93.789 29.7534 96.1498 27.0525 99.3134 25.0084C99.3259 25 99.343 25.0038 99.3522 25.0168C99.3535 25.0187 99.3548 25.0207 99.3555 25.0226C99.3601 25.0368 99.3654 25.0517 99.37 25.066C99.3745 25.0802 99.3713 25.0918 99.3588 25.1002C98.9659 25.3668 98.7024 25.6587 98.567 25.9757Z" fill="#27432D"></path>
<path d="M136.513 36.5123C136.2 35.5016 135.874 34.531 135.904 33.4497C135.945 31.832 136.035 30.2253 136.173 28.629C136.254 27.3633 136.041 26.1934 135.531 25.1199C135.078 24.289 134.524 23.4698 133.868 22.6629L133.102 21.5823C133.071 21.5402 133.05 21.5448 133.039 21.5946C132.996 21.7823 132.993 21.913 133.027 21.9874C133.89 23.8516 133.797 25.3942 132.772 27.2028C132.765 27.2158 132.751 27.2209 132.732 27.2171C132.708 27.2125 132.7 27.1983 132.709 27.1757C133.272 25.6854 133.203 24.2302 132.502 22.8105C132.495 22.7962 132.484 22.7846 132.47 22.7768C132.431 22.7542 132.381 22.7665 132.357 22.8053C131.937 23.5404 131.918 24.1402 131.942 25.1076C131.983 26.7072 131.735 28.2388 131.198 29.7031C134.596 33.3242 136.449 37.1361 135.483 42.259C135.361 42.9126 135.149 43.4833 134.849 43.9725C135.64 44.7561 136.292 45.0551 136.864 46.0781C136.933 46.1984 136.99 46.1939 137.037 46.0658C138.191 42.8608 137.487 39.6578 136.514 36.513L136.513 36.5123Z" fill="#466F2B"></path>
<path d="M59.7701 28.0855C59.7761 28.1399 59.7721 28.1845 59.7577 28.2208C59.7366 28.2771 59.6966 28.3062 59.6368 28.3075C59.4226 28.3114 59.2215 28.3631 59.0132 28.3275C57.1282 27.9975 55.2412 27.9613 53.3522 28.2195C52.5966 28.3237 51.4684 28.4084 50.519 28.699C48.1497 29.4205 45.996 30.6629 44.0583 32.4242C47.2739 27.2845 54.4994 26.3766 59.7708 28.0862L59.7701 28.0855Z" fill="#FAFAF9"></path>
<path d="M110.315 30.0221C110.26 30.0136 110.22 29.9852 110.193 29.9373C109.812 29.2494 109.502 28.5066 109.262 27.7088C109.242 27.644 109.252 27.6046 109.291 27.5916C109.395 27.5573 109.509 27.5852 109.584 27.6622C110.139 28.2387 110.509 28.8942 110.69 29.6293C110.723 29.7626 110.714 29.8622 110.664 29.9282C110.596 30.0169 110.48 30.0486 110.315 30.0221H110.315Z" fill="#C3ED75"></path>
<path d="M59.77 28.0856C59.7983 28.07 59.8252 28.0713 59.8521 28.0894C60.7536 28.4175 61.6432 28.6518 62.4731 29.1578C63.6511 29.8734 64.8522 30.5302 66.0763 31.1288C66.0967 31.1365 66.1065 31.1585 66.0993 31.1786C66.0914 31.1987 66.0691 31.2084 66.0487 31.2012C62.9718 30.3976 60.1426 29.6379 56.9704 29.6774C56.9362 29.6774 56.9086 29.7058 56.9093 29.7395C56.9093 29.7647 56.9263 29.7874 56.9507 29.7964L62.1235 31.6736C62.1511 31.6846 62.1656 31.7163 62.1551 31.7435C62.1465 31.7661 62.1242 31.7791 62.0999 31.7765C61.2549 31.6885 60.3765 31.6542 59.5479 31.5313C56.561 31.088 53.5814 30.4235 50.534 30.7496C50.511 30.7483 50.4913 30.7664 50.49 30.7891C50.4887 30.8117 50.5071 30.8311 50.5301 30.8324C51.3422 30.9909 52.6503 31.1333 53.2607 31.726C53.3159 31.7804 53.3047 31.8127 53.2279 31.8231C52.0866 31.9946 50.944 32.0703 49.8001 32.0502C49.0169 32.0373 48.4722 32.0852 48.1647 32.1945C47.5261 32.4236 46.394 33.3457 46.5681 34.1597C46.9157 35.7864 54.1845 35.5218 55.4526 35.428C55.4868 35.4221 55.519 35.4441 55.5249 35.4778C55.5308 35.5114 55.5084 35.5431 55.4743 35.549C52.9059 36.2607 45.1542 37.9878 43.365 35.448C43.3309 35.3988 43.3118 35.3438 43.3085 35.2843L43.2868 34.8411C43.2796 34.7006 43.2468 34.6948 43.1883 34.8229C43.1239 34.9672 43.0148 35.0384 42.8611 35.0371C43.1443 33.9947 43.5424 33.1237 44.0576 32.4249C45.9952 30.6629 48.1489 29.4211 50.5182 28.6996C51.4677 28.4097 52.5964 28.325 53.3514 28.2202C55.2404 27.962 57.1274 27.9982 59.0124 28.3282C59.2207 28.3645 59.4224 28.312 59.636 28.3082C59.6958 28.3069 59.7358 28.2784 59.7569 28.2214C59.7713 28.1852 59.7759 28.1406 59.7694 28.0862L59.77 28.0856Z" fill="#C3ED75"></path>
<path d="M92.2304 33.1102C91.5444 34.7674 91.2369 36.1315 91.3578 37.7834C90.9905 37.7284 90.7382 37.4457 90.6003 36.9351C89.7001 33.6169 91.03 30.9438 93.7389 29.0052C93.7711 28.9832 93.8158 28.9909 93.8382 29.0227C93.8559 29.0479 93.8552 29.0815 93.8355 29.1061C93.6194 29.3617 92.8585 30.0774 93.2376 30.4068C93.2862 30.4488 93.2928 30.4967 93.258 30.5511C92.7606 31.3295 92.3578 32.1519 92.051 33.019C92.03 33.0779 92.051 33.1122 92.1134 33.1219C92.1476 33.1264 92.1863 33.1232 92.2304 33.1109V33.1102Z" fill="#6EB648"></path>
<path d="M131.139 30.0566C131.262 31.0059 130.687 31.9791 130.195 32.8397C130.179 32.865 130.145 32.8727 130.119 32.8572C130.1 32.8455 130.09 32.8235 130.094 32.8022L130.48 31.1288C130.506 31.1683 130.535 31.1974 130.568 31.2156C130.618 31.2421 130.654 31.2291 130.676 31.178L131.138 30.0573L131.139 30.0566Z" fill="#466F2B"></path>
<path d="M106.753 32.5902C107.008 32.4987 107.069 32.0281 106.888 31.5392C106.707 31.0502 106.354 30.728 106.098 30.8196C105.843 30.9111 105.782 31.3817 105.963 31.8707C106.144 32.3596 106.497 32.6818 106.753 32.5902Z" fill="#C3ED75"></path>
<path d="M43.6088 31.3574C43.6245 31.395 43.6462 31.4131 43.6725 31.4131L43.4715 31.6978C43.3992 31.8013 43.3795 31.7923 43.411 31.6706C43.4439 31.5483 43.5096 31.4435 43.6088 31.3574Z" fill="#6EB648"></path>
<path d="M78.6581 33.3958C78.687 33.4042 78.7028 33.434 78.6949 33.4625L78.6489 33.6191C78.2803 34.8531 77.8329 35.8107 77.6496 35.7577C77.6496 35.7577 77.6489 35.7577 77.6482 35.7577L77.6358 35.7538C77.4511 35.7059 77.5996 34.6667 77.9676 33.4321C77.9682 33.4288 77.9695 33.4256 77.9702 33.4224L78.0175 33.2658C78.026 33.2373 78.0563 33.2218 78.0852 33.2295L78.6574 33.3952L78.6581 33.3958Z" fill="#C3ED75"></path>
<path d="M81.7033 37.7957C81.7013 37.799 81.6973 37.8009 81.6941 37.7996H81.6901C81.3471 37.687 81.3668 36.7222 81.7348 35.6442C81.7348 35.6429 81.7354 35.6423 81.7361 35.641L81.7486 35.6047C82.1165 34.5267 82.6928 33.7444 83.0364 33.857L83.0403 33.8589C83.0436 33.8609 83.0456 33.8647 83.0443 33.868L81.7033 37.7951V37.7957Z" fill="#C3ED75"></path>
<path d="M80.0371 37.7881C80.0344 37.7946 80.0272 37.7978 80.0206 37.7952H80.0187C79.5535 37.6548 79.4378 36.6978 79.7604 35.6566L79.7749 35.6113C80.0975 34.5721 80.7361 33.8422 81.202 33.9814H81.204C81.2105 33.9833 81.2151 33.9898 81.2132 33.9969C81.2132 33.9969 81.2132 33.9975 81.2132 33.9982L80.0371 37.7881Z" fill="#C3ED75"></path>
<path d="M83.4628 38.5125C83.4628 38.5125 83.4588 38.517 83.4562 38.5164H83.4542C83.1586 38.4465 83.0134 37.9922 83.1303 37.5005L83.3353 36.634C83.4523 36.141 83.788 35.7961 84.0856 35.8646C84.0856 35.8646 84.087 35.8646 84.0876 35.8646H84.0896C84.0896 35.8646 84.0942 35.8685 84.0935 35.8711L83.4641 38.5118L83.4628 38.5125Z" fill="#C3ED75"></path>
<path d="M40.7789 37.9826C40.6035 38.0453 40.5023 38.1359 40.4753 38.2543C40.091 39.9659 39.7073 41.6754 39.3229 43.3831C37.0035 53.6962 38.9734 64.9534 47.1095 72.3845C47.1338 72.4071 47.1312 72.4272 47.1023 72.444C47.0878 72.4524 47.0694 72.4498 47.0471 72.4369C46.275 71.9542 45.4702 71.3453 44.8098 70.6658C40.4662 66.2042 38.0778 60.8341 37.6448 54.5555C37.4963 52.3975 37.4635 50.8995 37.5476 50.0629C37.8091 47.4616 38.4254 44.9988 39.0437 42.4662C39.1573 42.0035 39.4333 41.4787 39.4937 40.9455C39.4983 40.9022 39.4668 40.8627 39.4221 40.8582C39.3853 40.8543 39.3512 40.8756 39.338 40.9093C38.5088 43.2284 37.8827 45.5346 37.4595 47.8285C37.4484 47.8913 37.4214 47.9269 37.3794 47.9366C37.3242 47.9495 37.2894 47.9294 37.2736 47.8751L37.2388 47.7509C37.9569 44.1589 39.0667 40.7022 40.568 37.3814C40.587 37.3374 40.639 37.3174 40.6836 37.3361C40.7139 37.3491 40.7342 37.3775 40.7369 37.4099L40.7789 37.9813V37.9826Z" fill="#C3ED75"></path>
<path d="M83.099 40.8454C82.7205 40.494 82.2225 40.089 81.85 39.6043C81.8355 39.5843 81.8401 39.5558 81.8605 39.5416C81.8769 39.5299 81.8999 39.5305 81.9157 39.5428C85.5373 42.3867 89.5584 44.502 93.9789 45.8894C94.0151 45.901 94.0348 45.9399 94.0229 45.9761C94.0131 46.0052 93.9848 46.0246 93.9533 46.0227C90.0847 45.758 85.8612 43.4124 83.099 40.8454Z" fill="#C3ED75"></path>
<path d="M55.8644 44.6644C53.0648 45.5697 50.1758 45.7127 47.1981 45.0934C45.5627 43.8627 44.152 42.4016 42.9654 40.7108C42.9444 40.6849 42.949 40.648 42.9746 40.6273C42.9976 40.6092 43.0311 40.6098 43.0528 40.6299C46.2283 43.0979 51.4064 45.186 55.4676 43.9643C55.5313 43.9449 55.5747 43.9656 55.599 44.0258L55.8644 44.6651V44.6644Z" fill="#466F2B"></path>
<path d="M43.0549 42.668C43.8769 43.5325 44.6962 44.3885 45.5136 45.2349C47.0629 46.8436 48.7679 47.9514 50.6299 49.1569C52.4026 50.3041 53.3442 51.5329 54.402 53.3525C56.1675 56.3899 58.0276 59.8524 59.2148 63.2515C59.0907 63.1629 58.9908 63.135 58.9146 63.1687C58.8521 63.1952 58.837 63.2379 58.8686 63.2968C58.9928 63.5272 59.6531 64.6712 59.6294 65.0912C59.6235 65.1992 59.5972 65.2038 59.5506 65.1054C57.6064 61.0398 55.406 56.6513 52.9927 53.1655C51.7121 51.3155 50.3021 50.0906 48.1818 48.3014C46.2357 46.6604 44.2744 44.9166 43.0549 42.6686V42.668Z" fill="#466F2B"></path>
<path d="M54.787 14.5639L51.7489 14.3841C51.4572 14.2029 51.0603 14.1543 50.5583 14.2378C50.5419 14.2404 50.5261 14.2462 50.5123 14.2546C50.4499 14.2915 50.4296 14.3711 50.467 14.4326C51.2114 15.6484 52.1372 16.8662 52.4079 18.3416C52.4138 18.3726 52.4072 18.4043 52.3895 18.4296L52.2837 18.5862C52.2739 18.6011 52.2732 18.6205 52.2824 18.636C52.2956 18.6593 52.3258 18.6677 52.3494 18.6548C53.7042 17.8899 54.4743 16.7517 54.6596 15.2408L54.8534 14.6591C54.8731 14.5989 54.8508 14.5672 54.7877 14.5633L54.787 14.5639Z" fill="#27432D"></path>
<path d="M50.7338 18.3288C50.5288 18.2149 50.2529 18.169 49.9053 18.1916C49.2653 18.235 48.603 18.2699 47.9191 18.2958C47.2252 18.2201 46.5097 18.2622 45.7732 18.422C45.7495 18.4272 45.7278 18.4388 45.7101 18.4544C45.6542 18.5048 45.6503 18.5896 45.7016 18.6433C46.5859 19.5919 47.3855 20.6052 48.1017 21.6826C48.1063 21.6897 48.1116 21.6962 48.1181 21.7014C48.1523 21.7299 48.2029 21.7253 48.2318 21.6917C49.1168 20.7107 50.0926 19.863 51.1583 19.15C51.2384 18.8051 51.0972 18.5314 50.7338 18.3288Z" fill="#27432D"></path>
<path d="M46.6561 22.8018C46.4695 22.6349 46.2848 22.5644 46.1015 22.5909C44.5575 22.82 42.817 23.2367 40.8794 23.8391C40.8123 23.8682 40.8071 24.0287 40.8629 24.3218C40.8728 24.3781 40.8951 24.4286 40.9306 24.4732C41.8656 25.6859 42.6849 26.8454 43.0542 28.3428C43.0581 28.3589 43.068 28.3732 43.0818 28.3829C43.1133 28.4049 43.1567 28.3971 43.1783 28.3667L44.8137 26.0443L46.8183 23.3564C46.9649 23.2697 46.9957 23.1765 46.9116 23.0756C46.8302 22.9772 46.7448 22.886 46.6554 22.8018H46.6561Z" fill="#27432D"></path>
<path d="M41.7837 29.9739C41.4322 29.9558 41.1766 29.9681 41.0156 30.0102C39.0241 30.5311 37.0826 31.2066 35.1897 32.0349C35.0385 32.0556 34.9045 32.1319 34.7875 32.2652C34.7718 32.284 34.7738 32.3112 34.7915 32.328C36.3119 33.7561 37.578 35.377 38.5892 37.1921C38.6319 37.2691 38.6733 37.2684 38.7134 37.1901C39.2876 36.0461 39.7213 34.587 40.1313 33.67C40.4236 33.0191 40.7403 32.3435 41.0807 31.6434C41.266 31.4428 41.4309 31.1089 41.5748 30.6417C41.7712 30.4974 41.8744 30.3104 41.8842 30.0794C41.8869 30.0121 41.854 29.9765 41.7857 29.9733L41.7837 29.9739Z" fill="#27432D"></path>
<path d="M37.7468 38.1195L36.9656 37.4925C36.9117 37.4491 36.8578 37.4485 36.8026 37.4905C36.2684 37.8963 35.66 38.104 34.9774 38.1137C34.9222 38.115 34.8729 38.1299 34.8289 38.159L33.1074 39.2849C33.0871 39.2978 33.0713 39.3172 33.0634 39.3399C33.0437 39.3962 33.0739 39.4577 33.1311 39.4777C33.1922 39.4991 33.2362 39.4848 33.2625 39.4344C33.2553 39.5282 33.2664 39.5793 33.2953 39.5877C34.8282 40.062 35.9623 40.9815 36.6975 42.3456C36.7067 42.3617 36.7225 42.374 36.7409 42.3779C36.7763 42.3863 36.8105 42.365 36.8184 42.3307C37.139 41.0288 37.5641 39.8019 38.093 38.6501C38.2001 38.4172 38.0845 38.2399 37.7455 38.1189L37.7468 38.1195Z" fill="#27432D"></path>
<path d="M35.0391 43.9654C34.9037 44.0437 34.8696 44.0942 34.9366 44.1168C33.5864 44.9024 32.5141 45.9054 31.7191 47.127C31.3327 47.4765 31.0765 47.8479 30.951 48.24C30.9069 48.3811 30.9851 48.5312 31.1284 48.5784C32.6796 49.0845 33.9707 49.9062 34.6166 51.4411C34.6251 51.4605 34.6442 51.4741 34.6659 51.4761C34.6987 51.4793 34.729 51.4553 34.7322 51.423C34.9116 49.3925 35.1619 47.3794 35.4839 45.3845C35.5792 44.7969 35.7927 44.6533 35.3722 44.0385C35.2979 43.9305 35.1521 43.8981 35.0391 43.9648V43.9654Z" fill="#27432D"></path>
<path d="M52.0542 48.1963C53.7776 49.3034 55.1482 50.8189 56.166 52.7414C57.5319 55.3245 58.4702 57.9258 58.9814 60.5451C58.8414 60.4325 58.7488 60.3109 58.7054 60.1815C58.0602 58.2816 57.3118 56.4239 56.459 54.6075C55.3723 52.2968 53.9044 50.1595 52.0542 48.1963Z" fill="#466F2B"></path>
<path d="M74.9385 42.7975L74.9589 43.7144C75.3137 47.7134 75.9871 51.6101 76.9786 55.4039C76.9858 55.433 77.0069 55.4569 77.0351 55.4679C77.0831 55.4867 77.137 55.4634 77.156 55.4168L77.4852 54.6546C78.2828 52.5192 78.9162 50.3573 79.386 48.1696C79.6528 47.1976 79.819 46.2096 79.8834 45.2046C78.1659 43.915 76.7059 42.4681 74.8386 41.3604L74.9392 42.7982L74.9385 42.7975Z" fill="#FAFAF9"></path>
<path d="M131.102 44.4322C131.107 44.3753 131.071 44.3228 131.016 44.306C127.736 43.3115 124.674 43.2759 121.228 43.5347C117.204 43.8362 113.325 44.8153 109.593 46.4731C109.553 46.4912 109.536 46.5216 109.543 46.565L109.887 48.5288C109.826 49.6936 109.909 50.8493 110.137 51.9946C110.14 52.0075 110.147 52.016 110.159 52.0198C110.175 52.0244 110.191 52.0302 110.206 52.036C110.208 52.036 110.21 52.0367 110.213 52.0367C110.223 52.0367 110.231 52.0276 110.231 52.0179C110.172 50.3336 110.937 48.5179 111.729 46.9992C112.038 46.7002 111.936 46.2479 112.27 46.059C112.357 46.0098 112.381 46.0305 112.343 46.1217C112.259 46.3249 112.22 46.5359 112.226 46.7559C111.094 48.613 110.584 50.3355 110.757 52.4087C110.938 54.5829 111.871 56.9195 112.827 58.8886C112.831 58.895 112.835 58.9009 112.838 58.9067C112.881 58.9656 112.965 58.9792 113.025 58.9371C117.235 55.8952 119.07 51.75 118.531 46.5016C118.488 46.0835 118.395 45.5969 118.251 45.0424C118.168 44.8069 118.128 44.5707 118.13 44.3325C118.132 44.2303 118.155 44.2258 118.2 44.3183L118.538 45.0049C119.297 47.3143 119.385 49.5823 119.539 51.8937C119.537 51.9292 119.565 51.9603 119.601 51.9622C119.638 51.9642 119.669 51.937 119.671 51.9008C119.853 50.8221 120.233 49.8172 120.81 48.8854C120.832 48.8479 120.867 48.8239 120.915 48.8136C120.983 48.7967 121.003 48.8207 120.975 48.8854C120.159 50.7373 119.823 52.6579 120.233 54.6754C120.606 56.5021 121.063 58.3107 121.605 60.1012C121.624 60.1614 121.662 60.1756 121.718 60.1445C121.98 59.9983 122.168 59.7065 122.309 59.568C125.59 56.3688 126.768 52.5601 127.475 48.2564C127.475 48.2538 127.476 48.2519 127.479 48.2525C127.481 48.2525 127.484 48.2558 127.484 48.2584C127.527 49.4399 127.469 50.6221 127.312 51.8037C127.12 53.2558 127.167 54.7744 126.822 56.1974C126.816 56.2194 126.823 56.2433 126.841 56.2582C126.866 56.2796 126.904 56.2763 126.925 56.2511C129.459 53.3781 130.613 49.8146 130.935 46.046L131.101 44.4322H131.102Z" fill="#FAFAF9"></path>
<path d="M134.713 46.6264C134.711 46.5655 134.688 46.5079 134.648 46.4626C133.931 45.6499 132.699 44.9964 131.759 44.5712C131.688 44.5389 131.656 44.5602 131.662 44.6359L131.799 46.4264C131.831 48.1056 131.578 49.7252 131.04 51.2866C130.766 52.0793 130.111 53.2253 130.282 54.0606C130.475 55.0144 130.68 55.8524 130.895 56.5752L131.26 58.4614C131.264 58.4821 131.276 58.5009 131.294 58.5132C131.331 58.5391 131.383 58.5307 131.409 58.4938C132.376 57.1466 133.132 55.6706 133.677 54.0658C134.065 52.9431 134.322 51.7855 134.449 50.5942C134.69 49.2768 134.778 47.9542 134.715 46.6257L134.713 46.6264ZM132.144 47.3259C132.144 47.3259 132.144 47.3259 132.145 47.3259C132.149 47.3233 132.155 47.3226 132.159 47.3207C132.154 47.3226 132.149 47.3239 132.144 47.3265V47.3259Z" fill="#FAFAF9"></path>
<path d="M86.0358 48.6574C84.2624 47.8828 82.6448 46.995 81.1809 45.9946L81.4004 47.4033C81.7065 50.0072 82.5167 52.4369 83.8314 54.6939C83.8472 54.7211 83.8702 54.7444 83.8971 54.7606C83.9865 54.815 84.1041 54.7871 84.1586 54.6991L84.2355 54.5749L85.4044 51.509L86.0811 48.8916C86.1534 48.7797 86.1376 48.702 86.0351 48.6574H86.0358Z" fill="#FAFAF9"></path>
<path d="M109.055 46.7182C109.055 46.7013 109.051 46.6845 109.041 46.6703C109.015 46.6289 108.961 46.6166 108.92 46.6424L103.374 50.0072L103.542 51.4121L105.353 59.0068L105.563 59.4844C105.593 59.5529 105.633 59.5588 105.682 59.5025C108.265 56.568 109.306 51.7058 109.039 47.9877L109.055 46.7175V46.7182Z" fill="#FAFAF9"></path>
<path d="M87.309 50.9237C87.6526 52.7109 88.3957 54.8456 89.6191 56.2323C89.6658 56.2841 89.7223 56.3009 89.7893 56.2828C89.8977 56.253 89.9759 56.1715 90.0232 56.0395C90.7111 54.1947 91.1704 52.3156 91.4004 50.4009C89.9161 50.0586 88.4503 49.6147 87.0028 49.0698C86.9956 49.7557 87.0974 50.3737 87.3083 50.9237H87.309Z" fill="#FAFAF9"></path>
<path d="M99.0516 52.0379C99.0516 52.0379 99.0477 52.0379 99.0457 52.0379C99.2737 52.5834 99.5667 53.0719 99.9255 53.5041C99.9314 53.5113 99.938 53.5184 99.9439 53.5248C100.096 53.6827 100.349 53.6899 100.509 53.5404C101.028 53.0538 101.46 52.4805 101.804 51.8211C101.812 51.8185 101.819 51.8166 101.827 51.814C102.123 51.3901 102.331 50.8945 102.449 50.3276C101.163 50.712 99.869 50.9838 98.5674 51.1436L99.0516 52.0379Z" fill="#FAFAF9"></path>
<path d="M92.3683 50.6427L92.593 52.5251C92.8506 53.7539 93.3053 54.8591 93.9577 55.8414C93.9722 55.8634 93.9892 55.8828 94.009 55.8996C94.1272 56.0012 94.3053 55.9895 94.4071 55.8737L95.2652 54.9115C96.398 53.7791 97.1877 52.527 97.6338 51.1552C95.8388 51.1902 94.0832 51.0187 92.3677 50.6421L92.3683 50.6427Z" fill="#FAFAF9"></path>
<path d="M103.119 71.228C103.105 70.6935 102.971 70.2334 102.717 69.8478C102.685 69.7973 102.67 69.743 102.673 69.6841C102.695 69.2803 103.096 63.8131 101.272 65.7841C101.178 65.8864 101.133 65.8689 101.139 65.7317C101.184 64.4848 101.217 63.1305 100.901 61.8803C100.863 61.7328 100.711 61.6428 100.561 61.6797C100.529 61.6875 100.498 61.7011 100.47 61.7198C99.5228 62.3611 98.3559 64.3444 97.7193 65.3338C97.6969 65.3694 97.6496 65.3804 97.6135 65.3584C97.599 65.3499 97.5879 65.3364 97.5819 65.3208C97.1798 64.3179 96.6312 63.3997 95.9374 62.5662C95.8966 62.5183 95.8855 62.453 95.9078 62.3954C96.0386 62.0641 96.1989 61.7619 96.3888 61.4895C97.9545 59.2577 99.804 57.9733 102.244 56.6869C102.7 58.1913 103.635 62.0822 104.88 61.9851C106.815 61.8337 108.506 58.1751 109.248 56.5102C109.258 56.4869 109.285 56.4766 109.309 56.4869C109.32 56.4921 109.329 56.5005 109.334 56.5122L110.699 59.8433C110.716 59.8821 110.714 59.9268 110.695 59.9656C108.716 64.1451 106.57 68.4954 103.572 71.9741C103.516 72.0381 103.418 72.0446 103.353 71.989C103.33 71.9696 103.313 71.9437 103.305 71.9146L103.118 71.228H103.119Z" fill="#466F2B"></path>
<path d="M101.698 99.0105C95.5636 97.6199 90.4341 96.1568 85.1331 92.7125C81.5988 90.416 78.7618 87.6245 76.6218 84.3373C74.5639 81.1757 73.0021 77.3191 71.3004 73.6405C68.5362 67.6634 65.9022 63.163 63.0618 57.9734C60.5328 53.484 58.1333 49.0476 55.8639 44.6643C53.0643 45.5696 50.1752 45.7126 47.1975 45.0933L52.0537 48.1974C53.7771 49.3045 55.1477 50.82 56.1655 52.7424C57.5315 55.3256 58.4697 57.9268 58.9809 60.5462L61.0407 68.3176C61.0861 68.5971 61.1353 68.8734 61.1892 69.1465C61.1951 69.173 61.1925 69.1931 61.18 69.208C61.1616 69.2293 61.1498 69.2274 61.1432 69.2009L60.9362 68.3506L59.2135 63.2523C59.0893 63.1636 58.9888 63.1358 58.9132 63.1695C58.8508 63.196 58.8357 63.2387 58.8672 63.2976C58.9914 63.5279 59.6517 64.672 59.6281 65.0919C59.6222 65.2 59.5959 65.2045 59.5492 65.1062C57.6051 61.0406 55.4046 56.6521 52.9913 53.1663C51.7108 51.3163 50.3007 50.0914 48.1805 48.3022C46.2343 46.6612 44.2731 44.9173 43.0536 42.6694C41.9195 41.2976 41.1613 39.7362 40.7783 37.9839C40.6028 38.0467 40.5016 38.1372 40.4747 38.2557C40.0903 39.9672 39.7066 41.6768 39.3223 43.3844C37.0029 53.6975 38.9727 64.9547 47.1088 72.3858C47.1332 72.4084 47.1305 72.4285 47.1016 72.4453C47.0872 72.4537 47.0688 72.4511 47.0464 72.4382C46.2744 71.9555 45.4695 71.3466 44.8092 70.6671C40.4655 66.2055 38.0772 60.8354 37.6442 54.5568C37.4957 52.3988 37.4628 50.9009 37.5469 50.0642C37.8084 47.4629 38.4247 45.0002 39.043 42.4675C39.1567 42.0048 39.4326 41.48 39.4931 40.9469C39.497 40.9106 39.4753 40.877 39.4412 40.864C39.3998 40.8485 39.3531 40.8699 39.338 40.9106C38.5088 43.2297 37.8827 45.5359 37.4595 47.8298C37.4484 47.8926 37.4214 47.9282 37.3787 47.9379C37.3242 47.9508 37.2887 47.9308 37.2729 47.8764L37.2381 47.7522C35.5844 55.8821 36.4825 64.9217 41.9117 71.5925C44.7047 75.0259 48.1325 77.5352 52.0688 79.591L48.0064 76.8383C47.9479 76.7989 47.9183 76.7432 47.9183 76.6727V76.4598C47.9183 76.4048 47.8999 76.3563 47.8631 76.3155C47.5412 75.9454 47.1818 75.6179 46.7836 75.3319C46.5602 75.1715 46.5168 75.0615 46.5458 74.8007C46.553 74.7392 46.5339 74.6874 46.4893 74.6441C45.6955 73.8812 45.0004 73.1137 44.4038 72.3398C44.3894 72.3217 44.3861 72.3043 44.3946 72.2874C44.4091 72.2538 44.4281 72.2512 44.4511 72.2803C44.9524 72.919 45.4748 73.4735 46.0188 73.9433C49.3993 76.8674 53.2456 79.0073 57.5591 80.3617C59.0716 80.8373 60.5788 81.3252 62.0972 81.7904C67.3214 83.3939 72.3057 86.2365 76.0265 90.2231C76.0311 90.2277 76.0377 90.2296 76.0449 90.2283C76.0659 90.2225 76.0791 90.2128 76.085 90.1992C76.0909 90.1869 76.0896 90.1765 76.081 90.1668C73.6664 87.2919 71.9745 84.4421 69.6585 81.7451C69.6473 81.7322 69.6499 81.7225 69.6657 81.716C69.6841 81.7102 69.6992 81.7141 69.7117 81.7283C73.3116 85.8366 76.9352 89.9248 80.5824 93.9924C85.2487 99.1968 90.8441 103.131 97.9999 103.906C99.902 104.111 102.003 104.166 104.304 104.069C104.366 104.065 104.412 104.038 104.443 103.985C104.984 103.036 105.379 102.041 105.628 101.002L105.974 99.3858C104.578 99.4647 103.151 99.3398 101.695 99.0092L101.698 99.0105ZM66.2635 66.2567C66.7281 67.2668 67.19 68.2781 67.6499 69.2902C67.19 68.2781 66.7274 67.2668 66.2635 66.2567C66.0119 65.7086 65.7537 65.1644 65.4895 64.6247C65.7537 65.165 66.0119 65.7092 66.2635 66.2567ZM62.7372 59.9515C62.6294 60.0143 62.5789 60.0907 62.5861 60.1806C62.5789 60.0913 62.6294 60.015 62.7372 59.9515ZM70.4909 76.6507C70.4384 76.5297 70.3838 76.4074 70.3293 76.2851C70.2196 76.0398 70.1052 75.7927 69.989 75.5442C70.1052 75.7927 70.2196 76.0405 70.3293 76.2851C70.3845 76.4074 70.4384 76.5297 70.4909 76.6507C70.648 77.0111 70.8319 77.3159 71.0402 77.6012C70.8326 77.3159 70.6486 77.0111 70.4909 76.6507ZM71.2005 77.8115C71.3654 78.0199 71.5435 78.2218 71.7334 78.4321C71.5435 78.2211 71.3654 78.0193 71.2005 77.8115ZM101.455 99.5242C101.455 99.5204 101.455 99.5165 101.455 99.5126C101.455 99.5145 101.457 99.5165 101.457 99.5184C101.457 99.5204 101.457 99.5223 101.456 99.5242H101.455Z" fill="#6EB648"></path>
<path d="M90.8258 77.51C91.2588 78.5887 91.6668 79.6738 92.0492 80.7667C92.0538 80.7797 92.0532 80.7952 92.0473 80.812C92.0348 80.8457 92.0216 80.8463 92.0072 80.814C91.6353 80.0381 91.1497 79.2086 90.5512 78.3259C88.9158 75.9169 87.2311 73.667 85.4972 71.5756C82.7955 68.317 80.6463 66.2308 76.0805 65.8561C76.2001 64.9398 76.3387 64.0242 76.4977 63.1086C76.8453 61.1072 75.545 61.6708 74.5279 62.3069C72.6876 63.5247 71.382 65.1443 70.29 66.9367C70.2657 66.9756 70.2138 66.9879 70.1744 66.9633C70.1481 66.9471 70.133 66.9186 70.135 66.8882C70.1698 66.4145 70.2191 65.211 69.8787 64.8434C69.4707 64.4021 68.5561 64.5212 68.0751 64.7697C68.0167 64.7988 67.9713 64.7852 67.9398 64.7302L66.3064 61.9199C70.0903 59.6066 74.0056 59.2689 78.0516 60.906C79.2514 61.3906 81.4098 62.4117 82.3231 63.6082C85.557 67.8433 88.5807 72.6116 90.5821 77.5495C90.6136 77.6278 90.6957 77.6142 90.8271 77.51H90.8258Z" fill="#7A2E3F"></path>
<path d="M94.5918 62.7348C94.9466 63.0816 95.3008 63.5397 95.6543 64.1092C96.0104 64.6831 96.3455 65.2694 96.6602 65.8673C97.3678 67.2093 97.9368 69.0735 98.3921 70.1943C99.0058 71.7039 99.4677 73.0065 99.7785 74.1013C99.8501 74.3589 99.837 74.6578 99.9395 74.9315C100.358 76.0581 100.74 77.1957 101.088 78.3455C101.144 78.5293 101.265 78.7066 101.452 78.8768C101.497 78.9175 101.514 78.9674 101.503 79.0262C101.48 79.1414 101.416 79.2424 101.311 79.3291C99.6891 77.153 99.2115 74.8202 98.5748 72.2585C98.2233 70.8478 97.81 69.8843 96.7568 69.0645C93.5958 66.6075 89.6174 66.0743 86.4583 68.9111L82.5916 62.3595C82.5601 62.3064 82.5706 62.2643 82.6245 62.2333C86.5391 59.8986 90.8671 59.9944 94.5912 62.7341L94.5918 62.7348Z" fill="#7A2E3F"></path>
<path d="M76.0805 65.8571C75.7546 67.5544 75.5489 69.2626 75.4622 70.9819C75.4491 71.2531 75.4195 71.5106 75.3742 71.7533C75.3696 71.7817 75.3886 71.8083 75.4169 71.8141C75.4392 71.818 75.4609 71.8076 75.4707 71.7875C76.0838 70.6707 77.7973 68.6965 79.2152 68.7916C80.3617 68.8686 81.371 69.1138 82.2442 69.5286C82.4367 69.6211 82.4281 69.6444 82.2185 69.5991L80.0766 69.1306C79.9899 69.1112 79.9452 69.1455 79.9432 69.2335L79.8972 71.4905C79.8959 71.5404 79.9353 71.5818 79.9859 71.5831C79.9912 71.5831 79.9964 71.5831 80.0017 71.5824C81.8178 71.3255 83.553 71.5708 85.2074 72.3194C85.235 72.3311 85.2587 72.3499 85.2771 72.3738C85.3612 72.4806 85.3566 72.5336 85.2626 72.5323C83.6693 71.774 81.9334 71.9034 79.9748 71.9163C79.9077 71.9176 79.8703 71.9513 79.8631 72.0173L79.66 73.932C79.3657 76.2543 79.1134 78.2499 79.4879 80.3523C79.4977 80.406 79.5496 80.4422 79.6042 80.4325C79.6062 80.4325 79.6081 80.4319 79.6101 80.4312C80.3512 80.2474 80.4715 80.6888 80.5043 81.3067C80.5681 82.5569 80.712 83.7798 80.938 84.9763C80.9485 85.0313 81.0024 85.0669 81.0576 85.0565C81.0852 85.0514 81.1095 85.0352 81.1246 85.0125C82.8073 82.4702 84.9926 80.4662 87.6805 79.0012C88.0491 78.7993 88.4236 78.6582 88.8054 78.578C88.9558 78.5469 89.103 78.6414 89.1352 78.7889C89.1378 78.7999 89.1391 78.8116 89.1405 78.8226C89.1819 79.3389 89.1825 79.8268 89.1424 80.2856C88.8317 83.8329 88.5281 87.3562 88.5991 90.9158C88.601 90.9378 88.6207 90.954 88.6424 90.9521C88.6556 90.9508 88.6674 90.9436 88.674 90.932C89.6891 88.8083 92.0564 85.9042 94.5124 85.3477C94.5768 85.3322 94.6366 85.3432 94.6918 85.3801C95.4494 85.9042 95.5151 88.156 95.5512 89.0263L95.657 90.1018L95.7555 91.6224L95.8015 92.307L96.224 95.3878C95.9579 95.8453 95.6695 96.0899 95.3587 96.1209C94.9526 94.1117 94.7332 92.5523 94.7003 91.4425C94.6603 90.0804 94.5696 89.0115 94.4296 88.2343L94.4901 86.3623C94.4921 86.3248 94.4618 86.2925 94.4237 86.2912C94.4099 86.2912 94.3961 86.2944 94.3836 86.3015C91.8948 87.7814 90.08 89.8397 88.9401 92.4766C88.8106 92.7755 88.7456 93.0421 88.7443 93.2764C88.743 93.3411 88.7686 93.3935 88.8211 93.433C89.8711 94.2457 91.3323 94.8455 92.5636 95.3405L92.3698 95.5191C92.3186 95.5651 92.2621 95.5735 92.1996 95.5463C91.1313 95.0623 90.0794 94.544 89.0445 93.9914C88.5642 93.7358 88.2955 93.4854 88.2397 93.2401L88.3402 92.2689C88.3474 92.2003 88.3172 92.1731 88.2489 92.186C87.9821 92.2391 87.7199 92.3653 87.4644 92.5646L87.0544 92.3413L87.7475 91.7881C87.7988 91.7473 87.8152 91.6955 87.7968 91.6334C87.7075 91.3202 87.6063 91.0012 87.5938 90.6803C87.4828 87.7451 87.6615 84.8139 88.1299 81.8858L88.6569 79.4593C88.6635 79.4328 88.6464 79.4069 88.6188 79.4011C88.605 79.3978 88.5899 79.4011 88.578 79.4088C85.76 81.3675 83.4045 83.7223 81.5116 86.4723C81.3703 86.6775 81.2172 87.0728 81.0523 87.6578C80.8558 87.5387 80.7606 87.4119 80.7671 87.278L80.7908 86.1721C80.7921 86.1035 80.7586 86.075 80.6903 86.0854C80.4439 86.1229 80.2113 86.2679 79.9918 86.5215C80.003 86.1721 79.9025 85.9521 79.6903 85.8621C79.7257 85.8201 79.75 85.7709 79.7632 85.7146C80.001 85.547 80.0963 85.3399 80.0378 85.0391C79.8926 84.3092 79.7796 83.5495 79.6995 82.76L79.7139 81.2776C79.7152 81.1851 79.639 81.1094 79.5444 81.1081C79.5267 81.1081 79.5096 81.11 79.4925 81.1152C78.6837 81.3565 77.8768 81.7364 77.0706 82.2534L76.6534 81.6464C76.7447 81.6225 76.8059 81.5901 76.8361 81.5494L78.4642 80.7638C78.5128 80.7405 78.5398 80.6875 78.5299 80.6344C77.9701 77.4547 78.4294 74.108 78.9655 70.9515C78.9898 70.8111 79.0056 70.5736 79.0128 70.2397L79.0621 69.6108C79.068 69.5532 79.0253 69.5021 78.9669 69.4969C78.9386 69.4943 78.9103 69.5027 78.8887 69.5208C77.0227 71.0091 75.428 73.4175 74.1803 75.4261C73.9806 75.4895 73.7526 75.3672 73.4963 75.0585C73.7927 74.1992 74.3649 73.8407 74.3065 72.83C74.2138 71.2421 74.3045 69.6541 74.5791 68.0649L75.5982 62.8838C75.6166 62.7925 75.5897 62.7776 75.5181 62.8385L74.8157 63.4435L74.5266 62.3085C75.5437 61.6724 76.844 61.1088 76.4964 63.1102C76.338 64.0252 76.1987 64.9408 76.0792 65.8577L76.0805 65.8571Z" fill="#21262C"></path>
<path d="M60.937 68.3502C60.9712 68.3392 61.006 68.3289 61.0415 68.3179C61.0868 68.5974 61.1361 68.8737 61.19 69.1468C61.1959 69.1733 61.1933 69.1934 61.1808 69.2083C61.1624 69.2296 61.1506 69.2277 61.144 69.2011L60.937 68.3509V68.3502Z" fill="#466F2B"></path>
<path d="M105.631 101.003L105.976 99.387C106.919 99.2116 107.716 99.0382 108.368 98.8661C110.022 98.4338 111.397 97.5842 112.493 96.3172C113.02 95.7083 113.441 94.8529 113.847 94.1107C113.855 94.0958 113.874 94.09 113.889 94.0977C113.899 94.1036 113.906 94.1146 113.905 94.1269C113.845 95.5466 113.679 96.9481 113.404 98.3316C113.084 99.9441 111.803 101.628 110.675 102.895C109.404 104.316 107.681 105.997 105.505 107.936C104.038 109.241 102.871 109.796 100.818 109.96C98.7224 110.128 96.4083 109.982 94.4378 109.701C90.7755 109.18 87.8714 107.462 85.2465 104.894C83.8036 103.484 80.527 99.9706 75.4165 94.354C75.1071 94.0143 74.3429 93.329 73.1248 92.2982C73.1097 92.2807 73.0827 92.2788 73.0656 92.2937C73.0479 92.3086 73.0459 92.3351 73.061 92.3519L73.3449 92.7952C73.3685 92.8308 73.358 92.8793 73.3219 92.9026C73.2989 92.9175 73.2693 92.9194 73.2444 92.9071C72.2542 92.4529 71.3061 91.866 70.4 91.1451C67.9729 89.2142 66.4617 87.6807 64.3763 86.1264C64.3539 86.1076 64.352 86.0746 64.371 86.0526C64.3842 86.0377 64.4045 86.0319 64.4236 86.0364L66.0281 86.5321C66.0517 86.5412 66.0787 86.5295 66.0872 86.5062C66.0964 86.4829 66.0846 86.4564 66.0609 86.448C62.5845 84.7856 59.0865 83.1453 55.5667 81.5263C54.5207 81.0449 53.3544 80.3997 52.0693 79.5915L48.0068 76.8389C47.9483 76.7994 47.9187 76.7438 47.9187 76.6732V76.4603C47.9187 76.4053 47.9003 76.3568 47.8636 76.316C47.5416 75.9459 47.1822 75.6185 46.784 75.3325C46.5606 75.172 46.5173 75.062 46.5462 74.8012C46.5534 74.7398 46.5344 74.688 46.4897 74.6446C45.696 73.8817 45.0008 73.1143 44.4042 72.3404C44.3898 72.3223 44.3865 72.3048 44.395 72.288C44.4095 72.2543 44.4285 72.2517 44.4515 72.2809C44.9529 72.9195 45.4752 73.4741 46.0192 73.9438C49.3997 76.868 53.246 79.0079 57.5595 80.3622C59.072 80.8378 60.5793 81.3257 62.0977 81.791C67.3218 83.3944 72.3061 86.237 76.0269 90.2237C76.0315 90.2282 76.0381 90.2302 76.0453 90.2289C76.0663 90.223 76.0795 90.2133 76.0854 90.1997C76.0913 90.1874 76.09 90.1771 76.0815 90.1674C73.6668 87.2924 71.975 84.4427 69.6589 81.7457C69.6477 81.7327 69.6504 81.723 69.6661 81.7165C69.6845 81.7107 69.6996 81.7146 69.7121 81.7288C73.312 85.8371 76.9356 89.9254 80.5828 93.9929C85.2491 99.1974 90.8445 103.132 98.0003 103.906C99.9025 104.111 102.004 104.166 104.304 104.07C104.366 104.066 104.412 104.038 104.443 103.985C104.985 103.036 105.38 102.042 105.629 101.002L105.631 101.003Z" fill="#466F2B"></path>
<path d="M112.354 87.018C112.444 86.9688 112.49 86.9223 112.493 86.8796C112.664 86.7463 112.823 86.6783 112.972 86.6757C113.109 86.6718 113.127 86.7165 113.027 86.809L111.893 87.8502C111.826 87.9123 111.721 87.9084 111.658 87.8424C111.656 87.8405 111.654 87.8379 111.652 87.8353C109.799 85.6753 107.576 83.8868 105.325 82.1501C104.282 81.3464 104.041 80.7271 104.008 79.4356C104.007 79.4226 104.018 79.4116 104.032 79.4116C104.04 79.4116 104.049 79.4162 104.054 79.4233C104.384 79.9371 104.73 80.4392 105.091 80.929C106.902 83.3899 109.871 84.8328 111.83 87.3707C111.868 87.4199 111.915 87.4322 111.972 87.4069C112.151 87.3286 112.278 87.1992 112.355 87.018H112.354Z" fill="#6EB648"></path>
<path d="M112.492 86.8799C112.489 86.9233 112.443 86.9693 112.353 87.0185C112.252 87.0043 112.184 86.9764 112.15 86.9356C112.097 86.8728 112.112 86.8229 112.196 86.784C112.271 86.7503 112.37 86.782 112.492 86.8799Z" fill="#466F2B"></path>
<path d="M109.403 87.823C107.415 84.957 104.281 83.0889 102.086 80.3596L101.312 79.3294C99.6898 77.1533 99.2121 74.8206 98.5754 72.2588C98.2239 70.8482 97.8106 69.8847 96.7574 69.0648C93.5964 66.6079 89.618 66.0747 86.459 68.9115C88.1456 71.6894 89.6725 74.4906 90.825 77.5098C91.258 78.5885 91.666 79.6737 92.0484 80.7666C92.053 80.7795 92.0523 80.795 92.0464 80.8119C92.0339 80.8455 92.0208 80.8462 92.0063 80.8138C91.6345 80.038 91.1489 79.2084 90.5503 78.3258C88.915 75.9167 87.2303 73.6668 85.4964 71.5755C82.7946 68.3168 80.6455 66.2306 76.0797 65.856C75.7538 67.5532 75.5481 69.2615 75.4614 70.9808C75.4483 71.2519 75.4187 71.5095 75.3734 71.7521C75.3701 71.7741 75.3813 71.7968 75.401 71.8071C75.4266 71.8207 75.4575 71.811 75.47 71.7858C76.083 70.6689 77.7965 68.6947 79.2144 68.7898C80.361 68.8668 81.3702 69.1121 82.2434 69.5268C82.4359 69.6194 82.4274 69.6427 82.2178 69.5974L80.0758 69.1289C79.9891 69.1095 79.9444 69.1438 79.9424 69.2318L79.8964 71.4888C79.8964 71.494 79.8964 71.4991 79.8971 71.5043C79.9043 71.5535 79.9503 71.5878 80.0002 71.5807C81.8163 71.3238 83.5515 71.569 85.206 72.3177C85.2336 72.3293 85.2572 72.3481 85.2756 72.372C85.3597 72.4788 85.3551 72.5319 85.2612 72.5306C83.6678 71.7722 81.9319 71.9016 79.9733 71.9145C79.9063 71.9158 79.8688 71.9495 79.8616 72.0155L79.6586 73.9302C79.3642 76.2526 79.1119 78.2481 79.4864 80.3505C79.4864 80.3524 79.4871 80.3544 79.4878 80.3563C79.5009 80.4094 79.5548 80.4424 79.6093 80.4294C80.3498 80.2457 80.4707 80.687 80.5035 81.3049C80.5673 82.5551 80.7112 83.7781 80.9372 84.9745C80.9424 85.0017 80.9589 85.0256 80.9819 85.0405C81.0292 85.0709 81.0929 85.0573 81.1238 85.0108C82.8065 82.4684 84.9918 80.4644 87.6797 78.9994C88.0483 78.7975 88.4228 78.6564 88.8046 78.5762C88.8158 78.5736 88.8276 78.5723 88.8388 78.571C88.9918 78.5581 89.1265 78.67 89.139 78.8208C89.1804 79.3372 89.1811 79.8251 89.141 80.2839C88.8302 83.8311 88.5267 87.3545 88.5976 90.914C88.5989 90.927 88.6062 90.9386 88.618 90.9451C88.637 90.9561 88.662 90.9496 88.6732 90.9302C89.6883 88.8065 92.0556 85.9024 94.5116 85.3459C94.576 85.3304 94.6358 85.3414 94.691 85.3783C95.4486 85.9024 95.5143 88.1543 95.5504 89.0246L95.6562 90.1L95.7548 91.6207L95.8008 92.3053L96.2232 95.386C96.9952 94.5286 97.992 93.3451 98.9506 93.0837C99.0045 93.0682 99.0577 93.0695 99.1116 93.0876C99.9697 93.3775 100.211 95.7089 100.225 96.4634C100.225 96.4725 100.227 96.4822 100.229 96.4906C100.246 96.554 100.313 96.5915 100.377 96.5747C101.014 96.4 101.427 96.1172 101.915 95.6112C103.479 93.9896 105.374 91.7455 107.452 90.9691C107.518 90.9451 107.57 90.9031 107.608 90.8429L109.404 87.975C109.436 87.9245 109.434 87.8741 109.4 87.8236L109.403 87.823ZM86.2323 73.3148C86.2323 73.3148 86.231 73.3096 86.2303 73.3077C86.2316 73.3096 86.2316 73.3129 86.2323 73.3148ZM86.1915 73.4429C86.2007 73.4371 86.2099 73.4307 86.2172 73.4216C86.2099 73.43 86.2007 73.4365 86.1915 73.4429ZM86.2402 73.3627C86.2402 73.3575 86.2421 73.3517 86.2415 73.3465C86.2415 73.3465 86.2415 73.3472 86.2415 73.3478C86.2415 73.353 86.2402 73.3575 86.2395 73.3627H86.2402ZM86.2257 73.4074C86.2296 73.4002 86.2349 73.3938 86.2369 73.386C86.2342 73.3938 86.2296 73.4002 86.2257 73.4074ZM106.615 85.9044C106.615 85.8875 106.612 85.872 106.605 85.8571C106.612 85.872 106.616 85.8875 106.615 85.9044ZM106.516 85.7911C106.509 85.7905 106.503 85.7892 106.495 85.7892C106.497 85.7892 106.499 85.7879 106.502 85.7879C106.507 85.7879 106.511 85.7905 106.516 85.7911ZM106.56 85.8067C106.553 85.8028 106.546 85.7989 106.539 85.7957C106.547 85.7983 106.553 85.8021 106.56 85.8067Z" fill="#EE6556"></path>
<path d="M100.359 62.879C100.362 62.7819 100.34 62.7761 100.294 62.8628C99.714 63.9583 99.1174 65.0732 98.5024 66.2082C98.1509 66.8566 98.3178 67.516 98.5609 68.1553C98.5879 68.2239 98.6319 68.2375 98.6923 68.1967L98.8112 68.1158C98.8612 68.0835 98.9144 68.0763 98.9702 68.0945L99.6306 68.3086C99.7061 68.3326 99.7515 68.3061 99.7659 68.2297C100.127 66.4645 100.324 64.6811 100.359 62.8797L100.359 62.879Z" fill="#FAFAF9"></path>
<path d="M74.3082 72.8284C74.2155 71.2405 74.3062 69.6526 74.5808 68.0633L75.5999 62.8822C75.6183 62.791 75.5914 62.7761 75.5191 62.8369L74.8167 63.4419C73.1951 64.9897 71.795 66.7459 70.6169 68.7091C70.5493 68.8217 70.5433 68.9602 70.6005 69.0786L73.0151 74.0702L73.498 75.0557C73.7944 74.1964 74.3667 73.8379 74.3082 72.8271V72.8284Z" fill="#FAFAF9"></path>
<path d="M69.2393 65.1502C69.0356 65.1036 68.8431 65.1269 68.6611 65.2208C68.5895 65.2583 68.5724 65.312 68.6099 65.3832L69.144 66.3939C69.2308 66.5583 69.2873 66.5492 69.3142 66.3667C69.3681 66.0115 69.3839 65.6536 69.3615 65.2932C69.3569 65.2162 69.3155 65.169 69.2387 65.1509L69.2393 65.1502Z" fill="#FAFAF9"></path>
<path d="M100.257 73.1304L101.082 71.4027C101.448 70.6515 101.79 69.9164 101.857 69.07C101.926 68.2029 101.925 67.3397 101.855 66.4798C101.855 66.4649 101.844 66.452 101.83 66.4474C101.811 66.4416 101.79 66.452 101.784 66.4707L101.29 67.8199L99.7482 71.4189C99.7331 71.4564 99.7305 71.4979 99.741 71.538L100.178 73.1233C100.198 73.1964 100.224 73.199 100.257 73.1304Z" fill="#FAFAF9"></path>
<path d="M78.5317 80.632C77.9719 77.4522 78.4312 74.1055 78.9673 70.9491C78.9916 70.8087 79.0074 70.5712 79.0146 70.2373L79.0639 69.6084C79.0665 69.5805 79.058 69.5527 79.0396 69.5314C79.0021 69.4874 78.9351 69.4815 78.8904 69.5184C77.0244 71.0067 75.4298 73.4151 74.1821 75.4236L73.939 75.8125C73.9061 75.8656 73.9009 75.92 73.9245 75.9762C74.7163 77.924 75.6263 79.8134 76.6552 81.6434C76.7465 81.6194 76.8076 81.5871 76.8378 81.5463L78.466 80.7607C78.5146 80.7374 78.5415 80.6844 78.5317 80.6313V80.632Z" fill="#FAFAF9"></path>
<path d="M102.064 76.572C102.084 76.5791 102.103 76.5862 102.123 76.5933C102.263 76.5299 102.334 76.374 102.335 76.1268C102.345 74.2716 102.304 72.7212 102.212 71.4775L100.577 74.3344C100.547 74.3875 100.541 74.4424 100.556 74.5L101.233 76.9971C101.259 77.0896 101.3 77.0974 101.357 77.0204L101.632 76.6529C101.799 76.6962 101.943 76.669 102.064 76.572H102.064Z" fill="#FAFAF9"></path>
<path d="M101.79 78.3349C101.934 78.7432 102.246 79.3229 102.726 80.0736L102.338 77.3086C101.846 77.6315 101.663 77.9738 101.79 78.3355V78.3349Z" fill="#FAFAF9"></path>
<path d="M88.5792 79.4067C85.7612 81.3654 83.4057 83.7202 81.5127 86.4702C81.3715 86.6754 81.2184 87.0707 81.0535 87.6557C82.6593 89.2863 84.4037 90.7442 86.2868 92.028C86.6488 92.3561 86.9051 92.4596 87.0549 92.3399L87.748 91.7866C87.7993 91.7459 87.8157 91.6941 87.7973 91.632C87.708 91.3188 87.6068 90.9998 87.5943 90.6788C87.4833 87.7437 87.662 84.8124 88.1304 81.8844L88.6574 79.4579C88.6607 79.4443 88.6574 79.43 88.6495 79.419C88.6337 79.397 88.6015 79.3919 88.5785 79.4074L88.5792 79.4067Z" fill="#FAFAF9"></path>
<path d="M80.039 85.0365C79.8938 84.3066 79.7808 83.5469 79.7006 82.7575L79.715 81.275C79.715 81.2582 79.7131 81.2407 79.7078 81.2245C79.6802 81.1359 79.585 81.0861 79.4936 81.1126C78.6855 81.354 77.878 81.7338 77.0718 82.2508C77.7183 83.5385 78.5146 84.7569 79.4608 85.9074C79.4976 85.9521 79.5633 85.9592 79.6093 85.9236L79.6914 85.8589C79.7269 85.8168 79.7512 85.7677 79.7643 85.7114C80.0022 85.5438 80.0974 85.3367 80.039 85.0358V85.0365ZM79.2985 84.7408C79.2926 84.7362 79.2867 84.7317 79.2807 84.7285C79.2873 84.7323 79.2932 84.7362 79.2985 84.7408ZM79.221 84.7149C79.2157 84.7149 79.2104 84.7162 79.2052 84.7175C79.2072 84.7175 79.2091 84.7149 79.2111 84.7142C79.2144 84.7142 79.2177 84.7142 79.221 84.7142V84.7149ZM78.9509 84.8417C78.9634 84.854 78.9798 84.8605 78.9956 84.8618C78.9785 84.8605 78.9627 84.854 78.9509 84.8417ZM79.0271 84.8566C79.0179 84.8605 79.0081 84.8624 78.9989 84.8624C79.016 84.8624 79.033 84.8566 79.0462 84.8443C79.0409 84.8495 79.0344 84.854 79.0271 84.8572V84.8566ZM79.3097 84.7524C79.3221 84.7666 79.332 84.7828 79.3353 84.8022C79.332 84.7835 79.3221 84.7666 79.3097 84.7524Z" fill="#FAFAF9"></path>
<path d="M80.6921 86.0831C80.4457 86.1207 80.2131 86.2656 79.9937 86.5193C80.1546 86.8318 80.4128 87.0835 80.769 87.2757L80.7926 86.1698C80.7939 86.1012 80.7604 86.0728 80.6921 86.0831Z" fill="#FAFAF9"></path>
<path d="M114.924 86.0697C114.892 86.0496 114.848 86.0587 114.828 86.091C114.035 87.303 113.025 88.3008 111.797 89.0851C111.733 89.1258 111.703 89.2029 111.724 89.274C112.21 90.972 112.378 92.7035 112.229 94.4675C112.225 94.5076 112.246 94.5464 112.282 94.5658C112.332 94.5924 112.394 94.5742 112.42 94.5251L112.898 93.6871C114.039 91.6805 114.83 89.5096 114.857 87.1859L114.956 86.1318C114.958 86.1066 114.945 86.0826 114.924 86.0691V86.0697Z" fill="#FAFAF9"></path>
<path d="M94.4308 88.232L94.4912 86.36C94.4912 86.3464 94.4879 86.3328 94.4807 86.3205C94.4603 86.2882 94.4176 86.2785 94.3848 86.2985C91.8959 87.7784 90.0812 89.8367 88.9412 92.4736C88.8118 92.7725 88.7467 93.0391 88.7454 93.2734C88.7441 93.3381 88.7697 93.3905 88.8223 93.43C89.8722 94.2427 91.3335 94.8425 92.5648 95.3375L93.551 95.707C94.1397 96.0467 94.7429 96.1839 95.3598 96.1179C94.9538 94.1087 94.7343 92.5493 94.7015 91.4395C94.6614 90.0774 94.5707 89.0085 94.4308 88.2313V88.232Z" fill="#FAFAF9"></path>
<path d="M110.451 88.4822C110.412 88.3968 110.369 88.3949 110.321 88.4751C109.649 89.5861 108.907 90.6493 108.095 91.6652C108.054 91.717 108.038 91.7836 108.049 91.849C108.405 93.7708 108.511 95.7062 108.367 97.6571C108.361 97.7341 108.393 97.7561 108.464 97.7238L109.439 97.2682C110.16 96.9473 111.527 96.3209 111.477 95.4111C111.365 93.3017 111.306 91.3779 110.776 89.1947L110.45 88.4829L110.451 88.4822Z" fill="#FAFAF9"></path>
<path d="M107.263 92.084C107.259 92.0768 107.255 92.0704 107.25 92.0645C107.218 92.0277 107.161 92.0231 107.124 92.0548C105.205 93.6855 103.522 95.5478 101.613 97.2088C101.396 97.3971 101.327 97.6598 101.406 97.9963C101.418 98.0481 101.45 98.0798 101.503 98.0921C102.665 98.3528 103.795 98.4603 104.894 98.4143L106.728 98.162C106.84 98.1458 106.929 98.0617 106.95 97.953C107.311 96.0913 107.416 94.2219 107.267 92.3447C107.295 92.2328 107.294 92.1461 107.263 92.0833V92.084Z" fill="#FAFAF9"></path>
<path d="M88.2499 92.1843C87.9832 92.2373 87.721 92.3635 87.4654 92.5628C87.4326 92.5771 87.4102 92.5971 87.3978 92.6224C87.3682 92.6825 87.3826 92.7291 87.4398 92.7628L88.2407 93.2384L88.3413 92.2671C88.3485 92.1985 88.3183 92.1713 88.2499 92.1843Z" fill="#FAFAF9"></path>
<path d="M99.1117 94.1283C99.1032 94.107 99.0933 94.0882 99.0821 94.0727C99.0756 94.063 99.0684 94.0539 99.0598 94.0455C98.9915 93.9776 98.8804 93.9769 98.8114 94.0442L96.2615 96.5355C96.2115 96.5846 96.2188 96.6222 96.2832 96.6474C96.8541 96.8706 98.4251 97.4815 99.115 97.3139C99.1728 97.3003 99.2168 97.255 99.2287 97.1968C99.368 96.4966 99.3712 95.7609 99.2398 94.9902C99.3384 94.8104 99.2957 94.5231 99.1117 94.129V94.1283Z" fill="#FAFAF9"></path>
<path d="M100.91 97.4361C100.908 97.3811 100.861 97.3389 100.806 97.3409L100.784 97.3428C100.342 97.3629 99.9895 97.4951 99.9934 97.6389L99.9954 97.6713C100.002 97.8158 100.367 97.9169 100.809 97.8968H100.831C100.886 97.8936 100.929 97.8469 100.926 97.7925L100.909 97.4374L100.91 97.4361Z" fill="#FAFAF9"></path>
</svg>
