<svg width="21" height="21" viewBox="0 0 21 21" fill="none" xmlns="http://www.w3.org/2000/svg">
<path d="M10.0234 19.7513C14.994 19.7513 19.0234 15.7219 19.0234 10.7513C19.0234 5.78078 14.994 1.75134 10.0234 1.75134C5.05288 1.75134 1.02344 5.78078 1.02344 10.7513C1.02344 15.7219 5.05288 19.7513 10.0234 19.7513Z" stroke="currentcolor" stroke-width="1" stroke-linecap="round" stroke-linejoin="round"></path>
<path d="M10.0227 11.5695C11.8302 11.5695 13.2955 10.1043 13.2955 8.29678C13.2955 6.4893 11.8302 5.02405 10.0227 5.02405C8.21525 5.02405 6.75 6.4893 6.75 8.29678C6.75 10.1043 8.21525 11.5695 10.0227 11.5695Z" stroke="currentcolor" stroke-width="1" stroke-linecap="round" stroke-linejoin="round"></path>
<path d="M15.7447 17.7005C15.592 13.4687 13.092 11.5696 10.0247 11.5696C6.95741 11.5696 4.45741 13.4687 4.30469 17.7005" stroke="currentcolor" stroke-width="1" stroke-linecap="round" stroke-linejoin="round"></path>
</svg>